<svg version="1.1" id="Layer_1" xmlns="http://www.w3.org/2000/svg" xmlns:xlink="http://www.w3.org/1999/xlink" x="0px" y="0px"
	 width="100%" viewBox="0 0 512 512" enable-background="new 0 0 512 512" xml:space="preserve">
<path fill="#1565C0" opacity="1.000000" stroke="none" 
	d="
M289.000000,513.000000 
	C267.979095,513.000000 246.958206,513.000000 225.604553,512.590698 
	C220.229401,511.127045 215.221756,509.849945 210.138611,509.057220 
	C188.507645,505.683960 167.945129,498.768890 148.238449,489.537659 
	C126.761864,479.477356 106.531128,467.172821 89.312859,450.673065 
	C77.157219,439.024689 64.813293,427.347076 54.276608,414.291779 
	C40.926640,397.750702 30.134527,379.374786 21.788830,359.618500 
	C12.513205,337.660767 5.685752,315.120392 2.917593,291.398682 
	C2.816959,290.536255 1.663044,289.796783 0.999999,289.000000 
	C1.000000,267.645782 1.000000,246.291550 1.404199,224.611877 
	C2.201250,223.447128 2.806760,222.643188 2.953165,221.762909 
	C4.081421,214.979050 4.651589,208.066391 6.269828,201.406296 
	C12.826686,174.420441 22.525434,148.697067 36.971264,124.799232 
	C52.232800,99.552002 71.315796,77.602287 93.891914,58.852398 
	C114.246628,41.947445 136.787781,28.385538 161.579330,18.739529 
	C181.315460,11.060506 201.518509,5.338735 222.607346,2.917355 
	C223.466949,2.818656 224.205215,1.663142 225.000000,1.000002 
	C246.020889,1.000000 267.041779,1.000000 288.396881,1.410882 
	C292.160431,2.541667 295.563721,3.435467 299.023315,3.953329 
	C321.968964,7.388025 344.107666,13.919788 364.772186,24.211084 
	C380.255005,31.921810 394.985809,41.326092 409.403320,50.947552 
	C428.933807,63.981102 445.084747,80.961250 459.517273,99.261398 
	C472.269867,115.431419 482.879883,133.098221 491.174255,152.160568 
	C501.025269,174.800491 508.190369,198.063370 511.081909,222.613663 
	C511.183075,223.472504 512.336853,224.207367 513.000000,225.000000 
	C513.000000,246.020889 513.000000,267.041779 512.588501,288.405304 
	C511.456177,292.188660 510.572479,295.604462 510.040588,299.074188 
	C506.452881,322.477051 499.367126,344.828552 489.312927,366.190643 
	C479.306854,387.450470 467.117126,407.443054 450.831726,424.515259 
	C439.216766,436.691345 427.544495,449.030060 414.507050,459.577057 
	C398.020905,472.914001 379.708191,483.731842 360.012207,492.072632 
	C337.935333,501.421600 315.265015,508.349884 291.382782,511.082275 
	C290.526581,511.180206 289.791504,512.336792 289.000000,513.000000 
M184.008255,225.718689 
	C183.010590,229.948471 182.012924,234.178238 180.793762,239.347137 
	C190.971130,234.215668 201.045670,233.519608 211.331329,233.971191 
	C218.379990,234.280655 225.021652,237.750992 225.759949,242.934845 
	C226.709000,249.598526 228.056000,256.765076 226.598282,263.110046 
	C221.666946,284.574097 215.768692,305.825531 209.859863,327.052429 
	C205.297424,343.442474 200.587433,359.705597 201.948425,377.044098 
	C202.944412,389.732544 209.614151,398.865570 219.872910,405.266388 
	C235.202789,414.831207 252.280746,415.142578 269.107574,411.180054 
	C281.920898,408.162628 294.228302,402.967987 306.699158,398.567352 
	C308.014771,398.103149 309.486603,396.643066 309.903931,395.332336 
	C311.359406,390.760925 312.383453,386.052094 313.239929,382.695007 
	C303.589691,383.804657 294.077209,385.452087 284.513428,385.842682 
	C274.917938,386.234558 267.354492,380.403839 267.143066,372.886749 
	C266.934662,365.477325 266.705933,357.772003 268.417755,350.661560 
	C273.227722,330.682281 278.955383,310.921021 284.470581,291.115417 
	C288.662048,276.063507 292.669128,261.057190 292.077911,245.167725 
	C291.600006,232.322952 286.177155,222.275574 275.897217,215.049118 
	C262.260559,205.462982 246.442474,204.284836 231.009796,207.438492 
	C216.554062,210.392471 202.659698,216.148727 188.598526,220.908737 
	C186.840347,221.503922 185.572266,223.546799 184.008255,225.718689 
M316.612701,146.871384 
	C321.878754,129.573959 313.437103,112.529846 298.229767,104.555466 
	C281.900848,95.992950 260.951996,99.390762 248.090652,115.481300 
	C241.915878,123.206436 239.690536,132.159805 241.466644,141.894058 
	C245.456589,163.761536 268.907135,176.378860 289.627289,170.916824 
	C302.269653,167.584167 311.431519,160.011459 316.612701,146.871384 
z"/>
</svg>