<svg version="1.1" id="Layer_1" xmlns="http://www.w3.org/2000/svg" xmlns:xlink="http://www.w3.org/1999/xlink" x="0px" y="0px"
	 width="100%" viewBox="0 0 512 512" enable-background="new 0 0 512 512" xml:space="preserve">
<path fill="#48B740" opacity="1.000000" stroke="none" 
	d="
M370.265106,128.764221 
	C395.260437,150.721283 411.911072,177.422256 421.218140,209.034744 
	C426.987274,228.630280 429.147705,248.535660 427.822510,268.689087 
	C426.527191,288.388245 421.833527,307.419922 413.852997,325.694275 
	C405.047272,345.858185 392.904755,363.706360 377.332214,378.943207 
	C352.606689,403.135864 323.189270,418.802826 288.882904,425.126007 
	C274.444855,427.787170 259.930328,428.859497 245.439835,427.838013 
	C217.553589,425.872253 191.418488,417.801544 167.468109,403.027130 
	C154.765411,395.191193 143.066666,386.110779 132.865280,375.272461 
	C110.519753,351.531708 95.971497,323.537933 89.156151,291.700226 
	C85.891541,276.449738 84.965370,260.828827 86.114166,245.294418 
	C88.164642,217.566803 95.766922,191.321304 110.930832,167.863342 
	C118.121384,156.739822 126.192497,145.894821 135.411636,136.430542 
	C158.533051,112.694374 186.725952,97.434273 219.091888,89.978386 
	C235.655289,86.162811 252.511261,84.812134 269.322296,86.166611 
	C304.151794,88.972839 335.746338,100.771782 363.236664,122.747467 
	C365.551483,124.597900 367.754730,126.587914 370.265106,128.764221 
z"/>
</svg>