<svg version="1.1" id="Layer_1" xmlns="http://www.w3.org/2000/svg" xmlns:xlink="http://www.w3.org/1999/xlink" x="0px" y="0px"
	 width="100%" viewBox="0 0 512 512" enable-background="new 0 0 512 512" xml:space="preserve">

<path fill="#FFFFFF" opacity="1.000000" stroke="none"
	d="
M1.000001,411.468658 
	C1.664537,410.526978 2.741250,410.181702 2.933193,409.562256 
	C7.464631,394.937714 16.694088,382.784912 23.965935,369.617432 
	C30.725187,357.378174 37.963226,345.403625 44.970474,333.300934 
	C54.467983,316.897156 63.957958,300.488953 73.429451,284.070129 
	C81.299240,270.427856 89.124138,256.759644 96.993408,243.117035 
	C106.385719,226.833984 115.827225,210.579254 125.203552,194.287003 
	C132.175339,182.172882 139.031525,169.992126 146.022339,157.889084 
	C154.060471,143.972870 162.227097,130.130905 170.269669,116.217255 
	C178.229050,102.447502 185.931015,88.525955 194.068741,74.863281 
	C200.753494,63.640026 205.955673,51.389084 216.036026,42.426186 
	C224.685623,34.735458 234.572540,29.903017 246.046127,27.936768 
	C263.620331,24.925053 279.532410,28.546444 293.883331,39.010216 
	C301.263367,44.391273 306.534332,51.584820 311.073853,59.433296 
	C324.595093,82.810638 338.302917,106.080132 351.806488,129.467621 
	C363.856720,150.338043 375.661560,171.350128 387.704956,192.224564 
	C399.267914,212.266327 411.060638,232.175491 422.635010,252.210739 
	C431.956665,268.346466 441.031921,284.624451 450.347260,300.763885 
	C459.666138,316.909485 469.233978,332.911560 478.533539,349.068146 
	C488.230103,365.914459 497.810852,382.828766 507.268188,399.810333 
	C509.337646,403.526245 510.670685,407.652313 512.671387,411.294739 
	C513.000000,421.020905 513.000000,431.041779 512.671448,441.236572 
	C509.560547,447.291870 507.344269,453.531189 503.892914,458.989563 
	C492.063110,477.698578 474.796234,486.988861 452.642914,486.991699 
	C321.239929,487.008453 189.836731,487.092987 58.434559,486.766754 
	C50.627979,486.747375 42.284100,484.559601 35.139790,481.299805 
	C19.660475,474.236908 8.924460,462.271301 3.845253,445.654053 
	C3.423734,444.274963 1.972697,443.210602 0.999998,442.000000 
	C1.000000,431.979095 1.000000,421.958221 1.000001,411.468658 
M187.037277,149.575867 
	C186.151749,151.101791 185.255463,152.621582 184.382355,154.154602 
	C176.510254,167.976624 168.718277,181.844940 160.756348,195.615005 
	C146.433823,220.385635 131.980270,245.080505 117.640213,269.841064 
	C109.503418,283.890564 101.534798,298.037476 93.397133,312.086487 
	C84.049484,328.224426 74.579422,344.291412 65.198402,360.410065 
	C56.954037,374.575745 48.577984,388.669556 40.615490,402.992645 
	C36.355007,410.656525 31.611795,417.889771 31.715082,427.671478 
	C31.860193,441.413940 46.360176,456.101257 60.331161,456.085846 
	C191.317993,455.941193 322.305054,455.978271 453.292053,456.023590 
	C472.843170,456.030334 489.639526,433.770020 479.236664,413.927155 
	C470.141479,396.578705 459.745087,379.914612 450.003906,362.902161 
	C437.948090,341.847351 426.067535,320.691772 413.942383,299.677216 
	C399.720215,275.028168 385.247375,250.523758 371.011688,225.882446 
	C357.909515,203.203201 345.031372,180.394592 331.956512,157.699417 
	C317.029205,131.788803 302.074432,105.893150 286.939423,80.103783 
	C283.763062,74.691429 280.628174,68.719551 275.959595,64.817780 
	C261.535248,52.762699 240.581696,56.972507 231.940796,72.175156 
	C223.916763,86.292473 215.491730,100.181229 207.347351,114.230949 
	C200.657990,125.770615 194.121429,137.398849 187.037277,149.575867 
z"/>
<path fill="#FFFFFF" opacity="1.000000" stroke="none" 
	d="
M272.000000,187.028381 
	C272.000000,233.827637 272.000000,280.132202 272.000000,326.718201 
	C262.037384,326.718201 252.298492,326.718201 242.278534,326.718201 
	C242.278534,277.029968 242.278534,227.295181 242.278534,177.279938 
	C251.966492,177.279938 261.705231,177.279938 272.000000,177.279938 
	C272.000000,180.319031 272.000000,183.426361 272.000000,187.028381 
z"/>
<path fill="#FFFFFF" opacity="1.000000" stroke="none" 
	d="
M242.253479,391.744568 
	C235.331345,382.580811 234.542068,373.498322 240.974899,364.084717 
	C244.935928,358.288330 256.172546,354.541412 263.543915,357.231537 
	C271.236694,360.039001 276.958252,367.549072 277.181519,374.904694 
	C277.490326,385.076630 274.032837,392.603912 264.422363,395.998962 
	C256.720154,398.719849 249.031998,397.667511 242.253479,391.744568 
z"/>
</svg>