<svg version="1.1" id="Layer_1" xmlns="http://www.w3.org/2000/svg" xmlns:xlink="http://www.w3.org/1999/xlink" x="0px" y="0px"
	 width="100%" viewBox="0 0 512 512" enable-background="new 0 0 512 512" xml:space="preserve">

<path fill="#AFAFAF" opacity="1.000000" stroke="none" 
	d="
M1.000002,411.468658 
	C1.642332,410.723145 2.746020,410.571655 2.860249,410.151306 
	C6.853671,395.454926 16.292933,383.546692 23.340549,370.442719 
	C31.268688,355.701538 40.115887,341.455750 48.517620,326.967957 
	C61.810822,304.045380 75.086929,281.112823 88.331001,258.161835 
	C100.108757,237.751846 111.787849,217.284836 123.593353,196.890945 
	C136.540161,174.525452 149.629257,152.242279 162.566452,129.871246 
	C171.997910,113.562332 181.216980,97.130531 190.659073,80.827835 
	C196.436646,70.852303 201.993790,60.701309 208.480164,51.195637 
	C217.463882,38.030159 230.384857,30.680508 246.115631,27.936462 
	C259.820557,25.545795 272.750671,27.423037 285.153961,33.595570 
	C297.518036,39.748589 305.588898,49.903591 312.307190,61.622746 
	C327.982025,88.965462 344.007233,116.107056 359.786133,143.390488 
	C372.894928,166.057007 385.820007,188.829697 398.890900,211.518234 
	C410.804047,232.197220 422.832520,252.809723 434.757568,273.481873 
	C447.830414,296.143707 460.846497,318.838226 473.880768,341.522278 
	C485.035828,360.935760 496.249359,380.316254 507.272308,399.804504 
	C509.385468,403.540436 510.732819,407.709503 512.716736,411.339355 
	C513.000000,421.020905 513.000000,431.041779 512.713989,441.195557 
	C509.611816,447.262695 507.376190,453.566925 503.873322,459.063629 
	C492.131805,477.488373 475.104767,486.967163 453.176270,486.975586 
	C321.960449,487.026062 190.744583,487.033813 59.528923,486.885925 
	C53.920151,486.879608 48.106750,485.857788 42.742546,484.178558 
	C23.230820,478.070709 10.220119,465.137115 3.828539,445.604370 
	C3.382214,444.240417 1.965479,443.194031 1.000004,442.000000 
	C1.000000,431.979095 1.000000,421.958221 1.000002,411.468658 
M187.063751,149.592804 
	C182.506683,157.443161 177.911758,165.271851 173.400497,173.148438 
	C164.107468,189.373962 154.915741,205.657730 145.577347,221.857025 
	C135.034210,240.146133 124.380852,258.371735 113.765762,276.619324 
	C105.343094,291.098083 96.852013,305.537384 88.490608,320.051422 
	C80.545029,333.843689 72.792862,347.747406 64.836693,361.533447 
	C56.874599,375.329773 48.633701,388.966400 40.772072,402.818939 
	C36.389198,410.541809 31.777931,417.868103 31.696444,427.693542 
	C31.581676,441.531372 46.357975,456.100281 60.405403,456.084961 
	C191.541916,455.941742 322.678650,456.013580 453.815308,455.983246 
	C470.505096,455.979370 487.729340,438.159271 480.763092,418.554047 
	C476.416809,406.322266 468.768738,395.220673 462.251434,383.812378 
	C449.032715,360.673737 435.568909,337.675201 422.219238,314.611328 
	C411.632660,296.321289 401.064056,278.020844 390.490356,259.723358 
	C380.073883,241.698029 369.652222,223.675644 359.249054,205.642624 
	C349.755524,189.186371 340.293243,172.712097 330.799591,156.255905 
	C321.703064,140.488144 312.626282,124.708733 303.461548,108.980644 
	C295.859222,95.933929 288.520508,82.711678 280.380280,70.005867 
	C269.918854,53.676964 243.998444,53.791737 233.355789,70.117340 
	C227.140335,79.651703 221.680832,89.682693 215.973679,99.543747 
	C206.447418,116.003532 196.995270,132.506226 187.063751,149.592804 
z"/>
<path fill="#AFAFAF" opacity="1.000000" stroke="none" 
	d="
M272.000000,187.033264 
	C272.000000,233.788422 272.000000,280.049622 272.000000,326.655243 
	C262.078766,326.655243 252.358597,326.655243 242.317474,326.655243 
	C242.317474,277.052917 242.317474,227.369583 242.317474,177.342834 
	C251.925232,177.342834 261.645325,177.342834 272.000000,177.342834 
	C272.000000,180.339081 272.000000,183.439209 272.000000,187.033264 
z"/>
<path fill="#AFAFAF" opacity="1.000000" stroke="none" 
	d="
M242.281311,391.717896 
	C235.440521,382.635681 234.475891,373.621796 240.963242,364.273773 
	C245.253616,358.091492 255.878418,354.500610 263.546814,357.253510 
	C271.249939,360.018951 276.983582,367.502777 277.186035,375.090027 
	C277.454437,385.149414 274.012756,392.617767 264.564301,395.962280 
	C256.861664,398.688843 249.066010,397.828003 242.281311,391.717896 
z"/>
</svg>