<svg version="1.1" id="Layer_1" xmlns="http://www.w3.org/2000/svg" xmlns:xlink="http://www.w3.org/1999/xlink" x="0px" y="0px"
	 width="100%" viewBox="0 0 512 512" enable-background="new 0 0 512 512" xml:space="preserve">
<path fill="#B1B1B1" opacity="1.000000" stroke="none" 
	d="
M370.271118,128.769730 
	C391.226898,146.856201 406.124847,168.705658 416.101532,194.095932 
	C421.914581,208.890060 425.479034,224.072418 427.111450,239.906754 
	C430.747955,275.180359 424.041931,308.306946 407.169128,339.297485 
	C394.796509,362.022461 378.083374,380.997223 356.848907,396.133331 
	C337.206696,410.134369 315.680542,419.495148 292.296051,424.650177 
	C276.412598,428.151642 260.145935,429.130493 244.003906,427.826508 
	C220.796707,425.951752 198.296127,420.315033 177.935333,408.764618 
	C166.081284,402.039917 154.678223,394.153442 144.207016,385.427887 
	C114.937927,361.038361 97.687065,329.169220 89.362320,292.331970 
	C85.780487,276.482269 84.862961,260.227844 86.169548,244.104080 
	C88.103996,220.232285 93.978874,197.172989 106.124016,176.335358 
	C112.659523,165.122269 120.331085,154.459396 128.420837,144.288589 
	C143.033829,125.916496 161.921585,112.739059 182.927902,102.609680 
	C198.232590,95.229668 214.218414,89.640327 231.239258,88.090462 
	C244.038025,86.925041 256.996155,85.467201 269.745789,86.284622 
	C288.757599,87.503540 307.204895,92.066856 324.861694,99.827576 
	C341.446960,107.117317 356.542877,116.466927 370.271118,128.769730 
z"/>
</svg>