<svg version="1.1" id="Layer_1" xmlns="http://www.w3.org/2000/svg" xmlns:xlink="http://www.w3.org/1999/xlink" x="0px" y="0px"
	 width="100%" viewBox="0 0 512 512" enable-background="new 0 0 512 512" xml:space="preserve">
<path fill="#1565C0" opacity="1.000000" stroke="none" 
	d="
M1.000003,473.000000 
	C1.000000,356.644653 1.000000,240.289322 1.339609,123.697990 
	C2.118476,122.807289 2.736655,122.210449 2.970006,121.489120 
	C6.183245,111.556221 11.403483,102.828819 19.449478,96.166901 
	C28.835316,88.395615 39.349426,82.990631 51.993244,82.992630 
	C140.807480,83.006668 229.621704,83.000015 318.435944,82.999977 
	C320.351746,82.999977 322.267548,82.999985 325.217499,82.999985 
	C323.232605,85.113052 322.059052,86.432487 320.812714,87.679146 
	C276.987122,131.515915 233.016724,175.209839 189.497330,219.348404 
	C184.038467,224.884903 179.736908,232.308365 177.003052,239.641861 
	C169.636383,259.402740 163.431244,279.595734 156.718735,299.601685 
	C151.511139,315.122437 152.607315,329.810028 162.993759,342.941467 
	C174.407684,357.371979 190.235474,363.494873 207.136093,359.079987 
	C227.032333,353.882538 246.224030,346.046234 265.979584,340.231995 
	C279.687286,336.197754 290.789337,328.922394 300.746490,318.888824 
	C342.414246,276.901459 384.334595,235.164810 426.167542,193.341446 
	C427.498138,192.011154 428.884644,190.736801 430.818420,188.888351 
	C430.910675,190.915283 430.993408,191.885086 430.993469,192.854874 
	C430.999695,283.668671 431.001709,374.482483 430.978302,465.296295 
	C430.977966,466.584534 430.768280,467.900604 430.463287,469.156799 
	C425.422485,489.918427 413.010742,504.027466 392.689148,511.036041 
	C391.984192,511.279205 391.556793,512.327148 391.000000,513.000000 
	C274.644653,513.000000 158.289307,513.000000 41.699997,512.661133 
	C41.133640,511.958313 40.865990,511.387115 40.459591,511.260132 
	C21.558685,505.356720 9.034730,493.030853 2.884734,474.190796 
	C2.707144,473.646759 1.648069,473.390442 1.000003,473.000000 
z"/>
<path fill="#1565C0" opacity="1.000000" stroke="none"
	d="
M513.000000,63.531597 
	C512.607239,63.954617 511.933411,63.754951 511.861603,63.885754 
	C504.427094,77.429634 491.039307,85.452942 482.140656,96.740982 
	C460.441223,75.049683 439.092377,53.708832 416.862030,31.486818 
	C427.678314,21.892153 439.090851,11.768567 450.251709,1.322491 
	C456.354401,1.000000 462.708801,1.000000 469.206055,1.267134 
	C471.089386,2.720007 473.098267,3.647267 474.528320,5.132016 
	C486.931183,18.008947 499.226013,30.989967 511.589935,43.904617 
	C511.830597,44.155998 512.519958,43.977776 513.000000,44.000000 
	C513.000000,50.354397 513.000000,56.708797 513.000000,63.531597 
z"/>
<path fill="#1565C0" opacity="1.000000" stroke="none"
	d="
M394.750519,183.750565 
	C355.392273,223.108841 316.236389,262.169769 277.237183,301.386536 
	C272.459839,306.190552 267.305084,309.621124 260.787506,311.669403 
	C242.033676,317.563263 223.465836,324.047028 204.735321,330.017975 
	C198.422943,332.030212 192.255264,332.056000 186.970871,326.592773 
	C181.839462,321.287720 182.038971,315.254517 183.999390,309.152252 
	C190.497559,288.925171 197.229370,268.771667 204.082199,248.661713 
	C205.055069,245.806763 206.741913,242.897781 208.860275,240.773743 
	C270.149963,179.320312 331.536377,117.963318 392.913025,56.596607 
	C393.834412,55.675365 394.829071,54.827446 395.421265,54.283596 
	C416.883331,75.745506 438.153198,97.015213 459.821075,118.682892 
	C438.509460,139.993591 416.755005,161.747086 394.750519,183.750565 
z"/>
</svg>