<svg version="1.1" id="Layer_1" xmlns="http://www.w3.org/2000/svg" xmlns:xlink="http://www.w3.org/1999/xlink" x="0px" y="0px"
	 width="100%" viewBox="0 0 512 512" enable-background="new 0 0 512 512" xml:space="preserve">

<path fill="#1565C0" opacity="1.000000" stroke="none" 
	d="
M339.218018,37.479340 
	C344.362305,29.508114 350.771454,24.862234 360.485352,24.915693 
	C398.143311,25.122942 435.803101,24.997742 473.462189,25.001453 
	C483.302338,25.002422 488.998199,30.776180 488.998932,40.744503 
	C489.001709,78.736862 489.005615,116.729225 488.996979,154.721588 
	C488.994171,167.022980 478.975372,176.315872 466.736298,177.179688 
	C453.498840,178.113937 443.867981,169.098740 441.573639,160.042191 
	C441.175354,158.470001 441.028931,156.795944 441.024017,155.168152 
	C440.982178,141.337738 441.000031,127.507118 441.000000,113.676559 
	C441.000000,112.068375 441.000000,110.460182 441.000000,107.850723 
	C438.954315,109.739761 437.630768,110.879921 436.398712,112.111565 
	C399.276398,149.220520 362.047729,186.224319 325.127441,223.533249 
	C315.572083,233.189194 299.336578,233.767685 289.746918,223.949081 
	C279.802002,213.766754 281.369293,197.888245 290.419159,188.926025 
	C327.714447,151.991821 364.728302,114.773384 401.838196,77.652031 
	C403.079254,76.410599 404.240784,75.089684 406.191650,73.000000 
	C395.072174,73.000000 384.985229,73.061058 374.899445,72.978989 
	C367.934265,72.922318 360.686554,73.851227 354.064331,72.260872 
	C339.258759,68.705246 332.894257,53.128670 339.218018,37.479340 
z"/>
<path fill="#1565C0" opacity="1.000000" stroke="none" 
	d="
M216.066681,229.388870 
	C203.629105,233.380814 194.420593,229.283478 185.697449,220.426544 
	C149.924088,184.104477 113.714859,148.211700 77.658707,112.168251 
	C76.412621,110.922600 75.088593,109.754898 73.000015,107.802032 
	C73.000015,110.420540 73.000015,112.007729 73.000015,113.594910 
	C73.000023,127.423393 73.015747,141.251907 72.995255,155.080353 
	C72.977661,166.952866 62.841888,176.974197 50.869965,177.000198 
	C36.949593,177.030457 29.196154,171.880295 25.662334,160.162216 
	C25.243853,158.774536 25.028456,157.270493 25.027197,155.820129 
	C24.993490,117.000458 24.989794,78.180725 25.008520,39.361027 
	C25.012445,31.224672 31.249580,25.012003 39.410912,25.008240 
	C78.064003,24.990416 116.717125,24.986395 155.370224,25.008762 
	C166.882294,25.015425 176.961304,35.281940 177.000092,46.932503 
	C177.047058,61.037109 172.085266,68.619514 160.317780,72.210991 
	C158.628647,72.726517 156.789932,72.960449 155.019104,72.967087 
	C139.696625,73.024590 124.373825,73.000198 107.837784,73.000198 
	C109.587730,74.897224 110.679390,76.166931 111.859886,77.347832 
	C149.081238,114.582222 186.232620,151.887131 223.584427,188.990234 
	C235.919998,201.243668 232.395615,222.367783 216.066681,229.388870 
z"/>
<path fill="#1565C0" opacity="1.000000" stroke="none" 
	d="
M126.002296,441.000000 
	C135.998566,441.000061 145.495483,440.986847 154.992340,441.003540 
	C166.900452,441.024475 176.968414,451.124725 177.000137,463.055298 
	C177.037201,477.004242 171.933060,484.734528 160.220459,488.289276 
	C158.681885,488.756195 157.007263,488.969971 155.395340,488.971497 
	C116.741379,489.008148 78.087364,489.010040 39.433372,488.991394 
	C31.245243,488.987457 25.014162,482.805237 25.009741,474.663422 
	C24.988663,435.842804 24.976368,397.022156 25.015827,358.201599 
	C25.026833,347.375305 35.468731,337.091858 46.350937,337.000275 
	C60.923889,336.877686 68.515106,341.726990 72.170082,353.627045 
	C72.688393,355.314606 72.956787,357.146027 72.964890,358.912567 
	C73.028358,372.741089 73.000023,386.570007 73.000015,400.398804 
	C73.000015,401.987122 73.000015,403.575409 73.000015,406.194061 
	C75.091988,404.239899 76.412621,403.077332 77.654419,401.835938 
	C114.770874,364.730530 151.919037,327.656677 188.956482,290.472565 
	C196.464798,282.934509 205.491745,282.327728 214.577621,285.215393 
	C223.671295,288.105560 229.016190,294.975037 230.063980,304.901245 
	C230.924179,313.050262 228.827896,319.788910 222.897568,325.690521 
	C185.932983,362.476105 149.101288,399.395264 112.231514,436.276123 
	C110.976913,437.531128 109.786003,438.849762 107.749870,441.000000 
	C114.357933,441.000000 119.930428,441.000000 126.002296,441.000000 
z"/>
<path fill="#1565C0" opacity="1.000000" stroke="none" 
	d="
M354.250000,319.750000 
	C382.989624,348.494324 411.479309,376.988647 440.611481,406.125549 
	C440.782837,403.953674 440.983459,402.578369 440.985718,401.202728 
	C441.008942,387.043762 440.979736,372.884705 441.006500,358.725739 
	C441.028290,347.202148 451.301636,337.696259 462.806610,336.833527 
	C476.797729,335.784393 486.105743,344.992218 488.449829,353.992523 
	C488.858185,355.560547 488.977020,357.242767 488.978210,358.872437 
	C489.006317,397.351593 489.005829,435.830780 488.995178,474.309967 
	C488.992828,482.822052 482.889252,488.991089 474.448639,488.994019 
	C435.802856,489.007538 397.157104,489.015930 358.511322,488.990295 
	C347.267670,488.982819 337.072174,478.722290 337.000214,467.466614 
	C336.908142,453.067413 341.901978,445.331909 353.759125,441.734406 
	C355.449860,441.221405 357.298737,441.036926 359.075562,441.030762 
	C374.386353,440.977478 389.697388,441.000122 406.233398,441.000122 
	C404.412231,439.061218 403.282471,437.790955 402.082581,436.590759 
	C365.219910,399.718536 328.479309,362.722656 291.393097,326.076599 
	C281.871277,316.667816 282.024414,300.199646 291.207733,291.174500 
	C300.673798,281.871490 316.523346,281.597015 326.120239,291.545441 
	C335.255859,301.015717 344.694550,310.193573 354.250000,319.750000 
z"/>
</svg>