<svg version="1.1" id="Layer_1" xmlns="http://www.w3.org/2000/svg" xmlns:xlink="http://www.w3.org/1999/xlink" x="0px" y="0px"
	 width="100%" viewBox="0 0 512 512" enable-background="new 0 0 512 512" xml:space="preserve">

<path fill="#FFFFFF" opacity="1.000000" stroke="none" 
	d="
M0.999999,242.463181 
	C5.312411,238.524979 9.690598,235.128021 13.924998,231.560425 
	C27.052767,220.499939 40.169781,209.425827 53.206249,198.258118 
	C63.537212,189.408096 73.668724,180.324738 84.024422,171.504211 
	C96.334221,161.019272 108.847183,150.772903 121.163094,140.295029 
	C131.397583,131.587952 141.399063,122.606842 151.640350,113.907928 
	C163.711395,103.654839 175.993454,93.650169 188.064331,83.396904 
	C198.305466,74.697891 208.325333,65.738823 218.536743,57.004292 
	C229.089294,47.977932 239.703964,39.022282 250.395874,30.161674 
	C254.685440,26.606819 260.898376,27.278009 266.283325,31.852581 
	C282.622131,45.732609 298.880768,59.707096 315.158539,73.658882 
	C322.936676,80.325562 330.687500,87.024040 339.000000,94.181053 
	C339.000000,80.584717 338.992645,67.658463 339.002350,54.732227 
	C339.009766,44.843082 343.809479,40.000023 353.571320,40.000008 
	C369.902893,39.999985 386.234467,39.990665 402.566040,40.003979 
	C410.602631,40.010532 414.999359,44.370121 414.999573,52.282001 
	C415.000549,86.278351 415.058014,120.274956 414.909149,154.270660 
	C414.894470,157.625839 415.964386,159.866394 418.375183,161.913147 
	C432.094452,173.560654 445.769745,185.259979 459.457977,196.944046 
	C473.146088,208.627991 486.847534,220.296387 500.509033,232.011368 
	C504.534302,235.463135 508.443604,239.050110 512.703003,242.287552 
	C513.000000,246.024551 513.000000,250.049088 513.000000,254.536835 
	C511.002380,256.327759 509.138367,257.950073 506.982117,258.928162 
	C500.444733,261.893646 495.579346,258.395386 490.885437,254.406662 
	C475.565796,241.388519 460.187317,228.439377 444.904449,215.378311 
	C434.692535,206.651031 424.670898,197.700928 414.444458,188.990982 
	C402.012177,178.402283 389.410522,168.012589 376.964386,157.439957 
	C367.106323,149.065842 357.425018,140.483749 347.568604,132.107697 
	C337.493500,123.545822 327.265747,115.163742 317.171082,106.624672 
	C309.796753,100.386757 302.564209,93.981461 295.206696,87.723366 
	C284.503113,78.619164 273.736084,69.589546 263.019928,60.500050 
	C261.881989,59.534836 261.074463,57.860508 259.808350,57.444588 
	C258.120087,56.890011 255.454453,56.434715 254.377548,57.334995 
	C242.070999,67.623070 230.055069,78.257515 217.826813,88.640793 
	C201.144760,102.805878 184.286758,116.763870 167.616852,130.943100 
	C155.016510,141.660767 142.671371,152.678528 130.069382,163.394211 
	C115.765457,175.557083 101.244568,187.464661 86.927139,199.611862 
	C76.684303,208.302109 66.684242,217.278152 56.461784,225.992859 
	C43.910248,236.693085 31.278172,247.299973 18.598049,257.847595 
	C14.692981,261.095917 8.595353,260.681641 4.801302,257.315918 
	C3.846271,256.468719 2.759494,255.770004 1.366630,255.001526 
	C1.000000,250.975449 1.000000,246.950912 0.999999,242.463181 
M392.000000,135.012024 
	C392.000000,111.096642 392.000000,87.181252 392.000000,63.256973 
	C381.741089,63.256973 372.008209,63.256973 362.000000,63.256973 
	C362.000000,76.137306 362.308960,88.772949 361.887299,101.384163 
	C361.622803,109.294273 362.270752,115.831070 369.940918,120.763145 
	C377.022827,125.316940 383.067719,131.494019 389.510223,137.025009 
	C391.396545,138.644455 392.036987,138.179092 392.000000,135.012024 
z"/>
<path fill="#FFFFFF" opacity="1.000000" stroke="none" 
	d="
M167.000000,486.000000 
	C142.673096,486.000000 118.846199,486.002289 95.019295,485.998810 
	C85.778709,485.997467 81.000900,481.164154 81.000710,471.822021 
	C80.999367,406.006470 81.000000,340.190887 81.000000,274.375336 
	C81.000000,272.761780 81.000000,271.148224 81.000000,268.653381 
	C76.228661,272.653931 71.908333,276.011230 67.900131,279.707092 
	C63.344963,283.907257 54.976967,282.170441 51.582729,278.025452 
	C47.452755,272.981964 48.500160,266.076874 53.458958,261.823944 
	C64.283440,252.540298 74.914429,243.030548 85.765030,233.777985 
	C98.066925,223.287872 110.561058,213.023483 122.896957,202.572845 
	C130.521118,196.113846 137.963745,189.440964 145.563705,182.952911 
	C156.378662,173.720261 167.303574,164.616257 178.106400,155.369568 
	C188.186951,146.741119 198.141891,137.966080 208.201721,129.313248 
	C222.093704,117.364235 235.976654,105.403336 249.993622,93.602119 
	C253.122467,90.967873 260.344360,90.572556 263.935608,93.530121 
	C273.278015,101.224037 282.360748,109.232460 291.583191,117.072922 
	C302.290741,126.175880 313.057251,135.209503 323.758942,144.319275 
	C331.115173,150.581223 338.380737,156.949631 345.729584,163.220383 
	C356.799347,172.666199 367.935577,182.034317 378.987793,191.500534 
	C386.703674,198.109177 394.267090,204.896362 402.005341,211.478317 
	C412.204865,220.153809 422.558075,228.648758 432.752533,237.330154 
	C440.739655,244.131790 448.580109,251.105499 456.500854,257.985321 
	C457.725250,259.048798 459.031891,260.017487 460.298950,261.031921 
	C464.874207,264.694977 466.935455,271.530701 462.441010,277.916595 
	C459.415375,282.215546 450.889343,283.974274 446.187744,279.772491 
	C442.252258,276.255402 438.041748,273.046082 433.000000,268.920654 
	C433.000000,271.933533 433.000000,273.678741 433.000000,275.423920 
	C433.000000,340.906250 433.000732,406.388580 432.999268,471.870911 
	C432.999054,481.160797 428.182922,485.998901 418.931824,485.999084 
	C335.121216,486.000702 251.310608,486.000000 167.000000,486.000000 
M253.500000,321.000000 
	C271.996277,321.000000 290.493164,321.093414 308.988556,320.964508 
	C319.869934,320.888672 324.186401,327.649170 324.125671,336.293274 
	C323.842255,376.618347 324.000000,416.946533 324.000000,457.273590 
	C324.000000,459.059631 324.000000,460.845673 324.000000,462.791656 
	C352.819427,462.791656 381.221375,462.791656 410.000000,462.791656 
	C410.000000,460.798584 410.000000,459.007507 410.000000,457.216431 
	C410.000000,394.559509 410.000000,331.902557 410.000000,269.245636 
	C410.000000,263.246582 410.106506,257.244202 409.921173,251.250870 
	C409.877686,249.844574 409.205505,248.086761 408.205322,247.148849 
	C404.873352,244.024185 401.227722,241.237061 397.762421,238.250839 
	C390.065826,231.618362 382.459015,224.880844 374.717560,218.301483 
	C364.513275,209.628983 354.170807,201.119064 343.971558,192.440735 
	C336.233673,185.856720 328.700378,179.031723 320.944550,172.469437 
	C308.854248,162.239746 296.611969,152.189819 284.511169,141.972412 
	C275.404480,134.283127 266.418610,126.450699 257.096466,118.439224 
	C252.220734,122.608826 247.635284,126.509140 243.073090,130.436432 
	C235.624725,136.848282 228.237076,143.331497 220.740768,149.686661 
	C210.525864,158.346588 200.188095,166.861801 189.988068,175.539062 
	C182.249481,182.122360 174.691650,188.917847 166.967331,195.518234 
	C156.155182,204.757141 145.287552,213.931625 134.396835,223.077927 
	C126.650406,229.583542 118.691788,235.843414 111.091499,242.513367 
	C106.947678,246.149963 103.674644,249.672318 103.722672,256.624023 
	C104.185432,323.610413 104.000000,390.601257 104.000000,457.590851 
	C104.000000,459.346649 104.000000,461.102417 104.000000,462.679504 
	C133.045364,462.679504 161.448273,462.679504 190.000000,462.679504 
	C190.000000,420.712036 190.103882,379.064453 189.931091,337.418030 
	C189.884628,326.218781 194.368759,320.920837 206.507233,320.981476 
	C221.837799,321.058075 237.169052,321.000000 253.500000,321.000000 
M261.500000,344.000000 
	C245.404297,344.000000 229.308609,344.000000 213.286224,344.000000 
	C213.286224,383.976501 213.286224,423.378571 213.286224,462.713135 
	C242.643066,462.713135 271.712799,462.713135 300.713806,462.713135 
	C300.713806,423.023560 300.713806,383.621490 300.713806,344.000000 
	C287.785736,344.000000 275.142883,344.000000 261.500000,344.000000 
z"/>
</svg>