<svg version="1.1" id="Layer_1" xmlns="http://www.w3.org/2000/svg" xmlns:xlink="http://www.w3.org/1999/xlink" x="0px" y="0px"
	 width="100%" viewBox="0 0 512 512" enable-background="new 0 0 512 512" xml:space="preserve">

<path fill="#AFAFAF" opacity="1.000000" stroke="none" 
	d="
M0.999997,242.463165 
	C2.819798,240.670654 4.741757,239.459808 6.443086,237.993042 
	C19.014093,227.155167 31.462353,216.173691 44.102837,205.417923 
	C58.456501,193.204437 73.040039,181.261078 87.392540,169.046234 
	C100.026421,158.294037 112.394783,147.229752 125.033447,136.483292 
	C141.651443,122.353264 158.475891,108.466156 175.104080,94.348007 
	C187.497925,83.825035 199.659348,73.028580 212.038086,62.487553 
	C224.273468,52.068573 236.627487,41.788235 248.977264,31.504482 
	C255.384674,26.168991 259.979584,26.647055 267.840637,33.370049 
	C284.752167,47.833248 301.547394,62.432369 318.449066,76.907150 
	C325.020203,82.534744 331.750061,87.977013 338.997589,93.993439 
	C338.997589,80.338974 338.646240,67.245903 339.214111,54.192806 
	C339.382050,50.333038 341.643982,46.243484 343.920380,42.928066 
	C345.106415,41.200733 348.402496,40.154507 350.762756,40.123699 
	C368.256470,39.895355 385.754608,39.968391 403.251190,40.014465 
	C410.546997,40.033676 414.999207,44.687717 414.999573,52.094738 
	C415.001251,86.254944 415.059052,120.415421 414.904572,154.574936 
	C414.889954,157.809219 416.031067,159.870468 418.272675,161.783539 
	C436.659210,177.475342 454.990997,193.231491 473.415833,208.878128 
	C485.445709,219.094086 497.615875,229.144699 509.681061,239.319366 
	C510.783997,240.249512 511.579620,241.544083 512.758972,242.334717 
	C513.000000,246.024551 513.000000,250.049088 513.000000,254.536819 
	C511.921600,255.574738 510.591400,255.916367 509.807251,256.763489 
	C505.844360,261.044403 498.692322,260.709229 494.803345,257.354309 
	C481.130951,245.559494 467.376160,233.860062 453.633301,222.147141 
	C438.025543,208.844727 422.394836,195.569290 406.778076,182.277451 
	C391.039032,168.881500 375.307007,155.477249 359.567902,142.081345 
	C343.954041,128.792023 328.332916,115.511230 312.719147,102.221794 
	C296.982483,88.827782 281.256042,75.421829 265.512299,62.036190 
	C262.883789,59.801384 260.189972,57.643398 257.131409,55.124706 
	C251.730667,59.633667 246.078308,64.301369 240.481949,69.035263 
	C227.415115,80.088341 214.352921,91.147110 201.331604,102.253700 
	C191.561554,110.587128 181.900604,119.048660 172.114380,127.362869 
	C159.470108,138.105194 146.705215,148.705673 134.075699,159.465195 
	C124.030251,168.023270 114.173737,176.803284 104.117966,185.348999 
	C91.848618,195.775864 79.420708,206.015991 67.134651,216.423386 
	C59.477798,222.909424 51.994068,229.599457 44.364197,236.117828 
	C35.863327,243.380341 27.345890,250.626175 18.713940,257.731384 
	C14.505431,261.195557 8.448789,260.703491 4.459318,256.964203 
	C3.492036,256.057587 2.475086,255.203964 1.240489,254.662979 
	C1.000000,250.975449 1.000000,246.950912 0.999997,242.463165 
M378.532471,128.019608 
	C382.837372,131.503494 387.142273,134.987381 391.743164,138.710800 
	C391.743164,113.400871 391.743164,88.392769 391.743164,63.291794 
	C381.759369,63.291794 372.036499,63.291794 362.000122,63.291794 
	C362.000122,78.043724 362.223511,92.511398 361.884338,106.965866 
	C361.758057,112.348671 363.308746,115.900093 367.935455,118.807617 
	C371.652161,121.143295 374.680267,124.574844 378.532471,128.019608 
z"/>
<path fill="#AFAFAF" opacity="1.000000" stroke="none" 
	d="
M433.000000,449.000000 
	C433.000000,456.999054 433.005402,464.498077 432.998627,471.997131 
	C432.990417,481.104279 428.156616,485.997040 419.130280,485.997375 
	C310.977325,486.001434 202.824402,486.001862 94.671455,485.996582 
	C85.979744,485.996155 81.004211,481.022003 81.003365,472.333618 
	C80.996956,406.341980 80.999939,340.350372 80.999992,274.358734 
	C80.999992,272.860565 80.999985,271.362366 80.999985,268.711731 
	C76.240982,272.675385 72.108879,276.155518 67.934021,279.583618 
	C63.339939,283.355988 55.316006,282.916077 51.993755,278.301971 
	C47.920235,272.644501 47.523411,267.139008 53.328438,261.967712 
	C64.128189,252.346954 75.041008,242.849213 86.047623,233.465500 
	C100.769409,220.914413 115.684135,208.589661 130.405655,196.038254 
	C143.032379,185.272842 155.437164,174.247116 168.061630,163.478989 
	C182.779236,150.925491 197.689194,138.597458 212.401001,126.037270 
	C223.031540,116.961456 233.422043,107.604858 244.026276,98.497726 
	C248.645203,94.530899 253.280258,89.679047 260.208862,92.134270 
	C263.464050,93.287781 266.474182,95.546280 269.160583,97.818153 
	C279.485077,106.549522 289.571777,115.561501 299.862610,124.333412 
	C314.626251,136.917923 329.538605,149.328003 344.296265,161.919479 
	C354.818665,170.897324 365.118988,180.135574 375.648987,189.104309 
	C388.046997,199.664078 400.638458,209.996643 413.045197,220.546280 
	C421.080963,227.379166 428.879974,234.489990 436.888519,241.355606 
	C444.626556,247.989380 452.388367,254.604691 460.350555,260.964172 
	C465.086243,264.746643 466.280060,273.087952 462.326996,278.119568 
	C458.870239,282.519531 450.707977,283.407959 446.337738,279.830200 
	C442.082764,276.346802 437.855652,272.829407 433.000000,268.817749 
	C433.000000,329.284851 433.000000,388.892426 433.000000,449.000000 
M160.500000,463.000000 
	C170.259247,463.000000 180.018478,463.000000 189.999115,463.000000 
	C189.999115,460.522125 189.999115,458.706879 189.999115,456.891632 
	C189.999176,416.730469 190.018616,376.569275 189.986542,336.408142 
	C189.977844,325.517029 194.866394,321.089996 205.196274,321.045868 
	C239.690903,320.898560 274.186890,320.909637 308.681671,321.038208 
	C319.203857,321.077454 324.016937,325.625549 324.010529,336.284302 
	C323.986298,376.612091 324.000824,416.939911 324.000854,457.267700 
	C324.000854,459.048676 324.000854,460.829620 324.000854,462.712402 
	C352.894653,462.712402 381.285248,462.712402 410.000000,462.712402 
	C410.000000,460.624420 410.000000,458.820770 410.000000,457.017151 
	C410.000000,418.355774 410.000000,379.694427 410.000000,341.033051 
	C410.000000,311.537079 409.995056,282.041138 410.008850,252.545166 
	C410.010010,250.069229 409.765808,248.362320 407.263336,246.429947 
	C399.216125,240.216003 391.765228,233.231323 384.064209,226.567169 
	C376.613251,220.119431 369.172821,213.658768 361.663757,207.279175 
	C351.297455,198.472137 340.840546,189.771652 330.480560,180.957245 
	C322.849640,174.464767 315.354340,167.812912 307.722046,161.322067 
	C297.360260,152.509918 286.922363,143.787292 276.522949,135.019333 
	C270.041992,129.555084 263.571747,124.078049 257.145538,118.648003 
	C254.860474,120.433029 252.990356,121.775864 251.252213,123.272034 
	C243.499252,129.945755 235.824341,136.710526 228.045258,143.353455 
	C217.404068,152.440491 206.675171,161.424774 196.019043,170.494431 
	C186.365097,178.711075 176.775894,187.003738 167.126144,195.225357 
	C156.479172,204.296631 145.811142,213.343399 135.123016,222.366165 
	C127.332199,228.943054 119.479187,235.446213 111.682396,242.016068 
	C107.065125,245.906738 103.693077,249.611511 103.741386,256.923462 
	C104.181824,323.578094 104.000015,390.236816 104.000015,456.894348 
	C104.000015,458.830048 104.000015,460.765747 104.000015,463.000000 
	C122.893684,463.000000 141.196838,463.000000 160.500000,463.000000 
M300.999146,393.500000 
	C300.999146,377.088074 300.999146,360.676147 300.999146,344.320374 
	C271.332581,344.320374 242.295166,344.320374 213.314713,344.320374 
	C213.314713,384.004120 213.314713,423.366699 213.314713,462.679810 
	C242.667114,462.679810 271.704529,462.679810 300.999146,462.679810 
	C300.999146,439.740356 300.999146,417.120178 300.999146,393.500000 
z"/>
</svg>