<svg version="1.1" id="Layer_1" xmlns="http://www.w3.org/2000/svg" xmlns:xlink="http://www.w3.org/1999/xlink" x="0px" y="0px"
	 width="100%" viewBox="0 0 512 512" enable-background="new 0 0 512 512" xml:space="preserve">
<path fill="#1565C0" opacity="1.000000" stroke="none" 
	d="
M185.000000,513.000000 
	C176.312439,513.000000 167.624863,513.000000 158.690948,512.654419 
	C157.624084,511.850861 156.851700,511.249695 155.976151,510.955383 
	C114.444046,496.993591 72.939224,482.948975 31.342402,469.182373 
	C17.633940,464.645538 8.292210,455.918579 2.957319,442.633453 
	C2.678430,441.938965 1.669209,441.537750 1.000003,441.000000 
	C1.000000,304.312439 1.000000,167.624878 1.344979,30.652454 
	C2.274983,29.603918 3.083347,28.925125 3.410797,28.063555 
	C7.044760,18.502024 13.457085,11.388194 22.211443,6.225343 
	C24.899818,4.639883 27.408846,2.750313 30.000000,1.000000 
	C117.687561,1.000000 205.375122,1.000000 293.335083,1.363174 
	C301.663818,5.808675 310.348572,9.001071 317.647766,14.155523 
	C333.658203,25.461552 341.869659,42.019947 342.752838,61.188442 
	C343.802582,83.972160 343.135254,106.842453 342.941711,129.672943 
	C342.839539,141.722153 331.862885,151.608047 319.886475,150.996353 
	C308.366394,150.407959 299.068085,140.756165 299.022888,129.072205 
	C298.942322,108.240288 298.547607,87.394424 299.164581,66.580490 
	C299.552002,53.509964 288.701904,43.872383 276.543182,43.944443 
	C247.545746,44.116302 218.546585,43.999752 189.548126,43.999676 
	C187.818375,43.999672 186.088608,43.999676 183.176880,43.999676 
	C184.842941,44.865696 185.357788,45.206684 185.921555,45.415714 
	C204.365692,52.254372 215.034866,68.230087 215.024292,88.421600 
	C214.969971,192.082748 214.999084,295.743927 214.999069,399.405121 
	C214.999069,401.497467 214.999069,403.589813 214.999069,405.999939 
	C217.042175,405.999939 218.353485,406.000092 219.664780,405.999878 
	C239.663712,405.996796 259.684753,406.559387 279.653290,405.778778 
	C291.678467,405.308685 299.169556,394.348877 299.086731,384.788391 
	C298.842773,356.625336 298.927582,328.458527 299.032501,300.293732 
	C299.080841,287.323883 309.071106,277.628937 320.303406,277.918304 
	C334.050354,278.272522 342.984192,287.036163 342.993866,301.012360 
	C343.012329,327.677612 342.834686,354.344238 343.059601,381.007599 
	C343.198730,397.506683 339.224457,412.680084 328.694397,425.436127 
	C316.909851,439.711884 301.920380,448.735077 282.830383,448.948334 
	C262.334045,449.177307 241.833145,449.000061 221.334229,449.000061 
	C219.385880,449.000061 217.437515,449.000031 214.999222,449.000031 
	C214.999222,455.843567 215.504730,462.186646 214.859421,468.410400 
	C214.192139,474.846008 213.075226,481.396637 210.969498,487.487091 
	C206.837021,499.439545 197.687027,506.641693 186.148102,511.116699 
	C185.603806,511.327759 185.375473,512.353638 185.000000,513.000000 
z"/>
<path fill="#1565C0" opacity="1.000000" stroke="none" 
	d="
M384.834656,128.999557 
	C384.575256,119.756950 388.844269,112.847916 396.977081,109.202492 
	C406.587891,104.894554 415.548462,107.033981 423.083374,114.574257 
	C446.627075,138.134644 470.243073,161.623276 493.696655,185.273010 
	C500.199615,191.830399 506.235107,198.851364 512.742554,205.329819 
	C513.000000,211.021149 513.000000,217.042297 513.000000,223.531738 
	C512.241577,224.619888 511.401154,225.163116 510.738281,225.872345 
	C507.028351,229.841690 503.493561,233.983200 499.658203,237.825592 
	C474.371368,263.158813 448.876343,288.286285 423.773102,313.799530 
	C414.815338,322.903564 400.579559,323.037964 392.908356,316.972046 
	C387.706635,312.858856 384.811218,307.597382 384.950134,299.954773 
	C384.956146,279.660339 384.999786,260.251892 384.954071,240.843658 
	C384.950378,239.283218 384.331879,237.724228 383.999084,236.164551 
	C355.720825,236.109650 327.441528,235.897751 299.164825,236.082794 
	C288.904114,236.149933 279.508179,228.056732 278.102722,218.235992 
	C276.493866,206.993744 282.466888,196.469986 292.884125,193.637817 
	C294.596069,193.172394 296.441833,193.028839 298.226227,193.025803 
	C326.507446,192.977615 354.788788,192.976730 383.829163,192.616119 
	C384.670410,171.177979 384.752533,150.088776 384.834656,128.999557 
z"/>
<path fill="#0000FF" opacity="1.000000" stroke="none" 
	d="
M384.495422,129.257889 
	C384.752533,150.088776 384.670410,171.177979 384.293823,192.551025 
	C384.051605,171.728638 384.103882,150.622437 384.495422,129.257889 
z"/>
<path fill="#0000FF" opacity="1.000000" stroke="none" 
	d="
M383.999451,236.621628 
	C384.331879,237.724228 384.950378,239.283218 384.954071,240.843658 
	C384.999786,260.251892 384.956146,279.660339 384.885132,299.534607 
	C384.556519,298.289337 384.041382,296.578857 384.036285,294.866882 
	C383.978851,275.604309 383.999878,256.341461 383.999451,236.621628 
z"/>
</svg>