<svg version="1.1" id="Layer_1" xmlns="http://www.w3.org/2000/svg" xmlns:xlink="http://www.w3.org/1999/xlink" x="0px" y="0px"
	 width="100%" viewBox="0 0 512 512" enable-background="new 0 0 512 512" xml:space="preserve">
<path fill="#FFE07D" opacity="1.000000" stroke="none"
	d="
M165.893555,42.910656 
	C166.611023,34.858032 171.585419,30.077061 179.550385,30.019060 
	C190.179459,29.941658 200.809509,29.999929 212.000275,29.999929 
	C212.000275,25.639927 212.174103,21.527206 211.959564,17.434847 
	C211.637329,11.288215 212.655029,5.727725 217.321075,1.264098 
	C243.354233,1.000000 269.708466,1.000000 296.531311,1.000005 
	C298.335541,3.466496 300.490906,5.820324 300.848328,8.421221 
	C301.805328,15.385347 301.991608,22.455391 302.520294,29.999804 
	C312.933929,29.999804 323.540253,30.092133 334.143890,29.963987 
	C340.174469,29.891108 347.763641,34.424446 348.006439,42.991997 
	C347.921112,50.914425 347.840057,57.976913 347.549316,65.279099 
	C344.105286,72.198708 338.970459,75.116096 331.368256,75.088760 
	C282.242737,74.912056 233.115509,74.859955 183.990860,75.132347 
	C175.647247,75.178612 169.884766,72.404701 166.197357,64.569397 
	C166.069611,57.037025 165.981583,49.973843 165.893555,42.910656 
z"/>
<path fill="#BD6E45" opacity="1.000000" stroke="none" 
	d="
M88.468658,513.000000 
	C87.906288,512.471863 87.964592,511.579224 87.697121,511.467651 
	C72.267784,505.032318 66.476257,492.865021 66.994392,476.894714 
	C67.059181,474.897766 67.027847,472.897705 67.447815,470.552399 
	C68.217667,470.731628 68.764175,471.209381 68.916893,471.790588 
	C72.380020,484.970917 86.146500,494.248230 99.516457,494.203735 
	C204.568924,493.854126 309.623505,493.870575 414.676178,494.190033 
	C427.440887,494.228851 440.776367,485.693024 444.952179,472.589233 
	C445.261017,471.619995 446.168457,470.841522 446.797607,469.974365 
	C446.202515,477.426941 446.476044,485.081360 444.802979,492.283539 
	C442.459351,502.372284 434.275360,507.847961 425.769836,512.663269 
	C313.645782,513.000000 201.291550,513.000000 88.468658,513.000000 
z"/>
<path fill="#CF8151" opacity="1.000000" stroke="none" 
	d="
M446.859192,469.511047 
	C446.168457,470.841522 445.261017,471.619995 444.952179,472.589233 
	C440.776367,485.693024 427.440887,494.228851 414.676178,494.190033 
	C309.623505,493.870575 204.568924,493.854126 99.516457,494.203735 
	C86.146500,494.248230 72.380020,484.970917 68.916893,471.790588 
	C68.764175,471.209381 68.217667,470.731628 67.530815,470.090088 
	C67.137985,466.979736 67.008759,463.985046 67.008522,460.990326 
	C66.998360,332.923187 66.927887,204.855957 67.072441,76.788971 
	C67.095688,56.192417 80.044518,43.270096 101.024834,43.049137 
	C122.339294,42.824661 143.657867,42.990456 165.434113,42.947998 
	C165.981583,49.973843 166.069611,57.037025 166.126373,65.026947 
	C166.062943,70.952118 166.030762,75.950569 165.530273,80.955528 
	C148.901352,80.964485 132.740616,80.928764 116.580200,80.985275 
	C108.356964,81.014023 104.794060,84.641487 104.618965,92.907654 
	C104.594261,94.073387 104.611816,95.240036 104.611809,96.406265 
	C104.611649,211.862839 104.611031,327.319427 104.617104,442.776001 
	C104.617210,444.773193 104.698433,446.770416 104.565063,449.150879 
	C104.358475,453.359222 104.301949,457.184326 104.303764,461.009399 
	C104.309235,472.555878 107.673958,475.960236 119.074615,475.960510 
	C210.973587,475.962891 302.872559,475.962006 394.771545,475.960419 
	C396.269714,475.960388 397.775055,476.029144 399.264801,475.911255 
	C404.882629,475.466614 408.835083,472.261658 409.297577,466.627167 
	C409.782898,460.714417 409.311218,454.723083 409.309753,448.314575 
	C409.370239,329.900482 409.384460,211.937988 409.376709,93.975471 
	C409.376068,84.384003 405.971130,80.991501 396.487457,80.973969 
	C380.325989,80.944099 364.164429,80.955154 347.980652,80.485741 
	C347.891907,75.028114 347.825470,70.033760 347.759003,65.039406 
	C347.840057,57.976913 347.921112,50.914425 348.054535,43.381454 
	C369.088257,42.940964 390.070679,43.104488 411.050568,42.940865 
	C420.595428,42.866425 429.362244,45.024158 436.511169,51.351681 
	C443.427185,57.473000 446.910187,65.760956 446.916809,74.878792 
	C447.012115,206.268372 446.947205,337.658051 446.859192,469.511047 
z"/>
<path fill="#FFD064" opacity="1.000000" stroke="none" 
	d="
M347.549316,65.279099 
	C347.825470,70.033760 347.891907,75.028114 347.836792,80.822144 
	C345.252258,90.385582 341.563354,93.203064 332.272339,93.206230 
	C282.174774,93.223297 232.077225,93.221977 181.979675,93.207855 
	C172.216461,93.205109 168.820831,90.559952 165.998596,80.949013 
	C166.030762,75.950569 166.062943,70.952118 166.166107,65.496124 
	C169.884766,72.404701 175.647247,75.178612 183.990860,75.132347 
	C233.115509,74.859955 282.242737,74.912056 331.368256,75.088760 
	C338.970459,75.116096 344.105286,72.198708 347.549316,65.279099 
z"/>
<path fill="#E7ECF6" opacity="1.000000" stroke="none" 
	d="
M165.530273,80.955528 
	C168.820831,90.559952 172.216461,93.205109 181.979675,93.207855 
	C232.077225,93.221977 282.174774,93.223297 332.272339,93.206230 
	C341.563354,93.203064 345.252258,90.385582 347.859070,81.285416 
	C364.164429,80.955154 380.325989,80.944099 396.487457,80.973969 
	C405.971130,80.991501 409.376068,84.384003 409.376709,93.975471 
	C409.384460,211.937988 409.370239,329.900482 409.187012,448.674866 
	C407.235382,455.062958 403.352234,457.092773 397.606201,457.088104 
	C303.948334,457.011841 210.290390,457.037109 116.632462,457.028870 
	C109.512726,457.028259 107.256378,455.422516 104.741806,448.767609 
	C104.698433,446.770416 104.617210,444.773193 104.617104,442.776001 
	C104.611031,327.319427 104.611649,211.862839 104.611809,96.406265 
	C104.611816,95.240036 104.594261,94.073387 104.618965,92.907654 
	C104.794060,84.641487 108.356964,81.014023 116.580200,80.985275 
	C132.740616,80.928764 148.901352,80.964485 165.530273,80.955528 
M207.162018,359.095459 
	C207.167038,352.287842 207.338806,345.475037 207.126343,338.674225 
	C206.943756,332.829254 203.147690,329.102783 197.307617,328.905884 
	C191.502090,328.710175 185.682281,328.736389 179.873993,328.878754 
	C173.840454,329.026581 169.704544,332.645447 169.446350,338.704681 
	C169.143631,345.808807 169.579773,352.944397 169.423904,360.951111 
	C169.390915,364.939423 169.254211,368.930359 169.355499,372.915283 
	C169.447968,376.554230 171.134583,378.966522 175.108612,378.981842 
	C183.920486,379.015808 192.732773,379.024200 201.544510,378.976105 
	C205.120804,378.956604 207.182816,377.119232 207.192810,373.462372 
	C207.205048,368.981140 207.048569,364.499390 207.162018,359.095459 
M275.928925,359.119873 
	C275.950989,340.458557 276.018738,321.797150 275.972717,303.136017 
	C275.954285,295.664459 272.098663,291.552460 264.767914,291.252960 
	C259.445465,291.035492 254.095505,291.011078 248.777573,291.284882 
	C242.298920,291.618439 238.133682,295.455658 238.097824,301.581757 
	C237.983765,321.069824 238.170197,340.559601 238.088516,360.965027 
	C238.060593,364.784912 238.046844,368.604950 238.000977,372.424622 
	C237.950104,376.660492 239.868973,378.996094 244.254181,378.996552 
	C252.726273,378.997406 261.198395,378.985931 269.670471,379.002045 
	C273.713684,379.009735 275.938843,377.063782 275.966705,372.991211 
	C275.996246,368.677948 275.835602,364.363373 275.928925,359.119873 
M306.945282,360.954498 
	C306.926056,364.762695 307.032562,368.576752 306.855682,372.377594 
	C306.636902,377.077728 308.914825,379.027039 313.407074,379.007050 
	C321.520782,378.970917 329.638397,378.853851 337.747314,379.055237 
	C342.457886,379.172211 344.509827,376.747192 344.718567,372.546692 
	C344.923248,368.428284 344.649506,364.286102 344.763824,359.213715 
	C344.820190,340.407623 344.891235,321.601532 344.927917,302.795410 
	C344.953247,289.812592 345.007050,276.829132 344.901825,263.847137 
	C344.838470,256.029510 341.124664,251.418640 334.462036,251.094467 
	C328.484467,250.803650 322.469513,250.798447 316.493164,251.102264 
	C310.494293,251.407257 306.982452,255.208160 306.977203,261.160675 
	C306.947998,294.116272 307.005493,327.071991 306.945282,360.954498 
M357.266571,142.816772 
	C355.491302,142.504333 353.716248,141.920059 351.940735,141.918747 
	C288.650726,141.871796 225.360672,141.870895 162.070633,141.893005 
	C155.965561,141.895142 152.605240,144.798752 152.695587,149.733948 
	C152.782867,154.501312 155.990219,157.227219 161.883789,157.229568 
	C225.340393,157.254990 288.796997,157.233734 352.253571,157.273254 
	C356.091431,157.275650 359.320221,156.269669 360.748993,152.511185 
	C362.121155,148.901779 361.243622,145.622238 357.266571,142.816772 
M314.963104,196.606522 
	C314.229218,191.411362 310.997070,189.172745 305.999878,189.170242 
	C273.367615,189.153976 240.735321,189.135834 208.103165,189.186523 
	C202.489777,189.195236 199.027878,192.334702 199.030548,196.993774 
	C199.033218,201.651672 202.498062,204.803207 208.100891,204.812149 
	C240.733047,204.864197 273.365326,204.847137 305.997589,204.827255 
	C310.987549,204.824203 314.227509,202.579956 314.963104,196.606522 
M240.851959,411.302887 
	C233.877838,411.519318 230.222519,414.194427 230.191681,419.104614 
	C230.159607,424.210999 234.015656,426.970825 241.246063,426.978180 
	C252.056061,426.989166 262.866150,427.003906 273.676056,426.971985 
	C280.032166,426.953217 283.788544,424.018097 283.805542,419.171814 
	C283.822418,414.348389 280.046814,411.346588 273.705597,411.316986 
	C263.062103,411.267334 252.418243,411.302979 240.851959,411.302887 
M213.858017,423.136230 
	C216.366806,416.211700 213.395859,411.464966 206.107452,411.358643 
	C194.127396,411.183868 182.141846,411.216370 170.160812,411.353363 
	C164.833511,411.414276 161.557892,414.564270 161.515457,419.058319 
	C161.471359,423.728546 164.936096,426.913330 170.474777,426.952057 
	C182.290390,427.034729 194.112015,427.160095 205.919174,426.833618 
	C208.442001,426.763824 210.913773,424.847076 213.858017,423.136230 
M345.770660,426.868683 
	C350.456238,425.663391 352.958832,422.791321 352.292725,417.823303 
	C351.727997,413.611237 348.558685,411.363281 343.085876,411.327209 
	C331.610931,411.251587 320.134857,411.256531 308.659851,411.325928 
	C302.543274,411.362915 299.059052,414.257477 299.013550,419.064484 
	C298.966644,424.020599 302.596649,426.955658 308.977203,426.969727 
	C320.951324,426.996094 332.925568,426.957336 345.770660,426.868683 
z"/>
<path fill="#BDC9E1" opacity="1.000000" stroke="none" 
	d="
M104.565063,449.150879 
	C107.256378,455.422516 109.512726,457.028259 116.632462,457.028870 
	C210.290390,457.037109 303.948334,457.011841 397.606201,457.088104 
	C403.352234,457.092773 407.235382,455.062958 409.135071,449.126404 
	C409.311218,454.723083 409.782898,460.714417 409.297577,466.627167 
	C408.835083,472.261658 404.882629,475.466614 399.264801,475.911255 
	C397.775055,476.029144 396.269714,475.960388 394.771545,475.960419 
	C302.872559,475.962006 210.973587,475.962891 119.074615,475.960510 
	C107.673958,475.960236 104.309235,472.555878 104.303764,461.009399 
	C104.301949,457.184326 104.358475,453.359222 104.565063,449.150879 
z"/>
<path fill="#A3DAFD" opacity="1.000000" stroke="none" 
	d="
M307.033264,360.027649 
	C307.005493,327.071991 306.947998,294.116272 306.977203,261.160675 
	C306.982452,255.208160 310.494293,251.407257 316.493164,251.102264 
	C322.469513,250.798447 328.484467,250.803650 334.462036,251.094467 
	C341.124664,251.418640 344.838470,256.029510 344.901825,263.847137 
	C345.007050,276.829132 344.953247,289.812592 344.927917,302.795410 
	C344.891235,321.601532 344.820190,340.407623 344.249390,359.645996 
	C331.501038,360.061401 319.267151,360.044525 307.033264,360.027649 
z"/>
<path fill="#384656" opacity="1.000000" stroke="none" 
	d="
M357.634705,143.011749 
	C361.243622,145.622238 362.121155,148.901779 360.748993,152.511185 
	C359.320221,156.269669 356.091431,157.275650 352.253571,157.273254 
	C288.796997,157.233734 225.340393,157.254990 161.883789,157.229568 
	C155.990219,157.227219 152.782867,154.501312 152.695587,149.733948 
	C152.605240,144.798752 155.965561,141.895142 162.070633,141.893005 
	C225.360672,141.870895 288.650726,141.871796 351.940735,141.918747 
	C353.716248,141.920059 355.491302,142.504333 357.634705,143.011749 
z"/>
<path fill="#E7A562" opacity="1.000000" stroke="none" 
	d="
M238.240509,360.048737 
	C238.170197,340.559601 237.983765,321.069824 238.097824,301.581757 
	C238.133682,295.455658 242.298920,291.618439 248.777573,291.284882 
	C254.095505,291.011078 259.445465,291.035492 264.767914,291.252960 
	C272.098663,291.552460 275.954285,295.664459 275.972717,303.136017 
	C276.018738,321.797150 275.950989,340.458557 275.391785,359.579163 
	C262.649933,360.041901 250.445221,360.045319 238.240509,360.048737 
z"/>
<path fill="#3E4C5C" opacity="1.000000" stroke="none" 
	d="
M314.963074,196.995972 
	C314.227509,202.579956 310.987549,204.824203 305.997589,204.827255 
	C273.365326,204.847137 240.733047,204.864197 208.100891,204.812149 
	C202.498062,204.803207 199.033218,201.651672 199.030548,196.993774 
	C199.027878,192.334702 202.489777,189.195236 208.103165,189.186523 
	C240.735321,189.135834 273.367615,189.153976 305.999878,189.170242 
	C310.997070,189.172745 314.229218,191.411362 314.963074,196.995972 
z"/>
<path fill="#DE5B76" opacity="1.000000" stroke="none" 
	d="
M169.695450,360.066345 
	C169.579773,352.944397 169.143631,345.808807 169.446350,338.704681 
	C169.704544,332.645447 173.840454,329.026581 179.873993,328.878754 
	C185.682281,328.736389 191.502090,328.710175 197.307617,328.905884 
	C203.147690,329.102783 206.943756,332.829254 207.126343,338.674225 
	C207.338806,345.475037 207.167038,352.287842 206.597412,359.558197 
	C193.920364,360.036072 181.807907,360.051208 169.695450,360.066345 
z"/>
<path fill="#3D4B5B" opacity="1.000000" stroke="none" 
	d="
M241.313248,411.302795 
	C252.418243,411.302979 263.062103,411.267334 273.705597,411.316986 
	C280.046814,411.346588 283.822418,414.348389 283.805542,419.171814 
	C283.788544,424.018097 280.032166,426.953217 273.676056,426.971985 
	C262.866150,427.003906 252.056061,426.989166 241.246063,426.978180 
	C234.015656,426.970825 230.159607,424.210999 230.191681,419.104614 
	C230.222519,414.194427 233.877838,411.519318 241.313248,411.302795 
z"/>
<path fill="#3D4B5B" opacity="1.000000" stroke="none" 
	d="
M213.633545,423.458740 
	C210.913773,424.847076 208.442001,426.763824 205.919174,426.833618 
	C194.112015,427.160095 182.290390,427.034729 170.474777,426.952057 
	C164.936096,426.913330 161.471359,423.728546 161.515457,419.058319 
	C161.557892,414.564270 164.833511,411.414276 170.160812,411.353363 
	C182.141846,411.216370 194.127396,411.183868 206.107452,411.358643 
	C213.395859,411.464966 216.366806,416.211700 213.633545,423.458740 
z"/>
<path fill="#3D4B5B" opacity="1.000000" stroke="none" 
	d="
M345.335205,426.907166 
	C332.925568,426.957336 320.951324,426.996094 308.977203,426.969727 
	C302.596649,426.955658 298.966644,424.020599 299.013550,419.064484 
	C299.059052,414.257477 302.543274,411.362915 308.659851,411.325928 
	C320.134857,411.256531 331.610931,411.251587 343.085876,411.327209 
	C348.558685,411.363281 351.727997,413.611237 352.292725,417.823303 
	C352.958832,422.791321 350.456238,425.663391 345.335205,426.907166 
z"/>
<path fill="#C84A5E" opacity="1.000000" stroke="none" 
	d="
M169.559677,360.508728 
	C181.807907,360.051208 193.920364,360.036072 206.498932,360.019409 
	C207.048569,364.499390 207.205048,368.981140 207.192810,373.462372 
	C207.182816,377.119232 205.120804,378.956604 201.544510,378.976105 
	C192.732773,379.024200 183.920486,379.015808 175.108612,378.981842 
	C171.134583,378.966522 169.447968,376.554230 169.355499,372.915283 
	C169.254211,368.930359 169.390915,364.939423 169.559677,360.508728 
z"/>
<path fill="#E49643" opacity="1.000000" stroke="none" 
	d="
M238.164520,360.506897 
	C250.445221,360.045319 262.649933,360.041901 275.306335,360.043915 
	C275.835602,364.363373 275.996246,368.677948 275.966705,372.991211 
	C275.938843,377.063782 273.713684,379.009735 269.670471,379.002045 
	C261.198395,378.985931 252.726273,378.997406 244.254181,378.996552 
	C239.868973,378.996094 237.950104,376.660492 238.000977,372.424622 
	C238.046844,368.604950 238.060593,364.784912 238.164520,360.506897 
z"/>
<path fill="#84C8EA" opacity="1.000000" stroke="none" 
	d="
M306.989258,360.491089 
	C319.267151,360.044525 331.501038,360.061401 344.160339,360.116333 
	C344.649506,364.286102 344.923248,368.428284 344.718567,372.546692 
	C344.509827,376.747192 342.457886,379.172211 337.747314,379.055237 
	C329.638397,378.853851 321.520782,378.970917 313.407074,379.007050 
	C308.914825,379.027039 306.636902,377.077728 306.855682,372.377594 
	C307.032562,368.576752 306.926056,364.762695 306.989258,360.491089 
z"/>
</svg>