<svg version="1.1" id="Layer_1" xmlns="http://www.w3.org/2000/svg" xmlns:xlink="http://www.w3.org/1999/xlink" x="0px" y="0px"
	 width="100%" viewBox="0 0 512 512" enable-background="new 0 0 512 512" xml:space="preserve">

<path fill="#FFFFFF" opacity="1.000000" stroke="none" 
	d="
M1.000003,219.460648 
	C2.462105,218.034424 4.140087,217.285080 5.355139,216.072021 
	C51.682716,169.821457 97.990143,123.550591 144.207474,77.189934 
	C147.234955,74.153053 150.355057,72.917137 154.634476,72.923882 
	C223.095795,73.031853 291.557343,73.006706 360.018829,72.980835 
	C363.563904,72.979492 367.245453,72.900841 368.469696,77.042770 
	C369.658051,81.063217 369.605530,85.028458 366.150269,88.368340 
	C358.045898,96.202110 350.083954,104.183243 341.157959,113.000000 
	C343.937500,113.000000 345.548065,113.238632 347.064941,112.962662 
	C360.512634,110.516151 369.643738,116.516953 378.927551,126.007248 
	C421.673889,169.704330 465.170227,212.667770 508.407806,255.884094 
	C509.695251,257.170898 511.095978,258.344421 512.721924,259.285370 
	C513.000000,262.692902 513.000000,266.385834 512.666138,270.243774 
	C509.612976,271.272522 506.936737,272.656036 504.164917,272.885712 
	C499.249329,273.293060 494.275665,273.000000 489.000000,273.000000 
	C489.000000,275.236877 489.000000,277.036560 489.000000,278.836273 
	C489.000000,329.998535 489.001678,381.160767 488.998047,432.323029 
	C488.997559,439.205353 487.196381,440.998138 480.284943,440.998230 
	C331.464447,441.000549 182.643921,441.000488 33.823421,440.998535 
	C26.679333,440.998444 25.001017,439.268646 25.000799,431.931396 
	C24.999289,380.769135 25.000000,329.606903 25.000000,278.444641 
	C25.000000,276.685303 25.000000,274.925964 25.000000,274.012482 
	C16.525835,272.948822 8.762918,271.974396 1.000000,271.000000 
	C1.000000,267.307098 1.000000,263.614166 1.278014,259.745972 
	C10.054875,250.635986 18.553724,241.701279 26.073317,233.796036 
	C18.532549,232.955139 9.766274,231.977570 1.000000,231.000000 
	C1.000000,227.307098 1.000000,223.614182 1.000003,219.460648 
M324.000031,170.500031 
	C295.349274,199.150421 266.698486,227.800812 237.582642,256.916290 
	C247.927795,257.119446 248.999985,258.193604 249.000000,267.418152 
	C249.000031,318.070374 249.000000,368.722626 249.000000,419.374847 
	C249.000000,421.151093 249.000000,422.927368 249.000000,424.757812 
	C270.556885,424.757812 291.624542,424.757812 313.000000,424.757812 
	C313.000000,422.893829 313.000000,421.257538 313.000000,419.621277 
	C313.000000,381.632111 312.997711,343.642914 313.002106,305.653748 
	C313.002899,298.789124 314.808228,297.003021 321.735291,297.001831 
	C347.727875,296.997314 373.720459,296.999176 399.713043,297.000458 
	C407.368042,297.000854 408.998962,298.597748 408.999268,306.101807 
	C409.000854,343.924377 409.000000,381.746918 409.000000,419.569489 
	C409.000000,421.327148 409.000000,423.084808 409.000000,424.688995 
	C430.695770,424.688995 451.764374,424.688995 473.000000,424.688995 
	C473.000000,422.561554 473.000000,420.744171 473.000000,418.926788 
	C473.000000,371.107086 473.000000,323.287354 473.000000,275.467651 
	C473.000000,271.635406 472.986725,267.803131 473.003479,263.970947 
	C473.023529,259.395386 475.349121,257.076843 479.914642,257.003082 
	C481.145447,256.983185 482.376892,257.000061 482.725647,257.000061 
	C442.006012,216.283005 401.099274,175.378876 360.065186,134.347382 
	C348.498901,145.942123 336.499451,157.971069 324.000031,170.500031 
M94.500000,273.000000 
	C76.737381,273.000000 58.974766,273.000000 41.288094,273.000000 
	C41.288094,323.978455 41.288094,374.381226 41.288094,424.712402 
	C105.311974,424.712402 169.047348,424.712402 232.711914,424.712402 
	C232.711914,374.021545 232.711914,323.618774 232.711914,273.000000 
	C186.782776,273.000000 141.141388,273.000000 94.500000,273.000000 
M329.000000,370.500000 
	C329.000000,388.595001 329.000000,406.689972 329.000000,424.712585 
	C350.643982,424.712585 371.714264,424.712585 392.713806,424.712585 
	C392.713806,387.356079 392.713806,350.287689 392.713806,313.287415 
	C371.356079,313.287415 350.285797,313.287415 329.000000,313.287415 
	C329.000000,332.215973 329.000000,350.858002 329.000000,370.500000 
M139.500000,257.000000 
	C162.499939,257.000000 185.500610,257.080322 208.498718,256.874908 
	C210.783005,256.854523 213.622711,255.665436 215.244186,254.052963 
	C256.011078,213.512115 296.644318,172.836884 337.342133,132.226517 
	C338.201416,131.369110 339.544495,130.996552 340.661865,130.397812 
	C340.259583,129.931870 339.857330,129.465942 339.455048,129.000000 
	C337.326477,129.000000 335.159729,129.258072 333.076843,128.949738 
	C327.664703,128.148590 323.963806,130.307846 320.137115,134.174393 
	C288.720428,165.918427 257.037964,197.399323 225.519928,229.043472 
	C222.775513,231.798889 219.952164,233.077927 216.001495,233.070068 
	C163.339233,232.965225 110.676674,232.992798 58.014225,233.031693 
	C56.276501,233.032974 53.929852,232.866501 52.898731,233.854721 
	C45.190262,241.242401 37.741928,248.901505 29.690744,257.000000 
	C66.558151,257.000000 102.529076,257.000000 139.500000,257.000000 
M170.500000,187.000000 
	C178.968124,178.523880 187.436249,170.047760 196.475464,161.000000 
	C181.371567,161.000000 167.384186,160.869080 153.404175,161.131241 
	C151.122696,161.174026 148.338104,162.405334 146.693726,164.014725 
	C132.297379,178.104797 118.111397,192.409729 103.852913,206.640808 
	C100.621353,209.866150 97.350548,213.052170 93.343155,216.999664 
	C109.240761,216.999664 123.992172,217.059845 138.741211,216.900101 
	C140.112228,216.885269 141.719742,215.730759 142.791519,214.673584 
	C151.916931,205.672424 160.943695,196.571228 170.500000,187.000000 
M265.687622,161.000122 
	C252.207489,161.000076 238.725311,160.883209 225.249313,161.119293 
	C223.097992,161.156982 220.448456,162.242874 218.918762,163.748123 
	C202.313599,180.088058 185.897293,196.619812 169.384811,213.054352 
	C168.286163,214.147812 166.825012,214.877075 165.532486,215.775726 
	C165.868576,216.183762 166.204681,216.591797 166.540771,216.999832 
	C181.139816,216.999832 195.739029,217.029465 210.337570,216.943680 
	C211.508575,216.936798 212.992416,216.454285 213.796738,215.655182 
	C231.500656,198.066589 249.133209,180.406097 266.730011,162.710251 
	C266.978241,162.460617 266.597412,161.585464 265.687622,161.000122 
M246.499695,136.000153 
	C243.653931,138.691864 240.808167,141.383575 236.984787,145.000000 
	C252.357788,145.000000 266.262146,144.915649 280.164001,145.066208 
	C283.197113,145.099045 285.321625,144.287109 287.496826,142.083939 
	C303.053711,126.326950 318.760376,110.717712 334.438293,95.080437 
	C336.249420,93.274010 338.176422,91.583725 340.951477,89.000000 
	C325.384003,89.000000 311.285034,88.886253 297.191833,89.121094 
	C295.047028,89.156837 292.415649,90.285294 290.878540,91.793945 
	C276.145569,106.253937 261.599518,120.904358 246.499695,136.000153 
M196.500015,114.000015 
	C186.366348,124.128990 176.232697,134.257965 165.485733,144.999969 
	C181.079605,144.999969 195.550232,145.080902 210.017273,144.890366 
	C211.693207,144.868271 213.694229,143.691803 214.959549,142.453033 
	C224.356537,133.253220 233.602097,123.898781 242.902252,114.599945 
	C251.203751,106.299622 259.514221,98.008286 268.532166,89.002525 
	C252.641724,89.002525 237.738480,88.950890 222.837234,89.099243 
	C221.627686,89.111282 220.241440,90.299316 219.259796,91.267776 
	C211.794647,98.632690 204.409836,106.079025 196.500015,114.000015 
M111.472900,161.000000 
	C103.973793,161.000000 96.468010,160.826492 88.979980,161.114456 
	C86.951889,161.192474 84.488464,162.168076 83.054329,163.576385 
	C69.263626,177.118713 55.654968,190.846390 41.983807,204.510605 
	C38.044819,208.447601 34.072250,212.351028 29.377783,217.000000 
	C41.919651,217.000000 53.353748,217.137299 64.778862,216.878296 
	C66.933281,216.829453 69.573425,215.732513 71.107063,214.222824 
	C87.969162,197.624100 104.658630,180.849991 121.384445,164.112976 
	C122.226387,163.270477 122.972267,162.331970 124.150475,161.000000 
	C119.751938,161.000000 116.105194,161.000000 111.472900,161.000000 
M120.500000,126.000000 
	C114.346809,132.110001 108.193626,138.219986 101.365715,144.999969 
	C114.405930,144.999969 126.209717,145.097931 138.008087,144.889496 
	C139.688416,144.859802 141.700256,143.705078 142.954742,142.461731 
	C159.980438,125.587112 176.902405,108.607834 193.833908,91.638329 
	C194.527206,90.943497 195.062088,90.090607 195.913986,89.000000 
	C184.150681,89.000000 172.994766,89.100143 161.842834,88.934082 
	C158.811920,88.888954 156.676315,89.693390 154.506775,91.910095 
	C143.445312,103.211906 132.188477,114.322495 120.500000,126.000000 
z"/>
<path fill="#FFFFFF" opacity="1.000000" stroke="none" 
	d="
M351.843231,272.375427 
	C342.378357,270.681244 335.094025,265.733673 329.524109,258.847504 
	C319.780731,246.801559 318.361023,232.772202 323.137909,218.474594 
	C327.920410,204.160080 342.786926,193.359619 358.110840,192.846146 
	C370.946960,192.416031 381.754517,195.960449 390.673035,205.175018 
	C406.609070,221.640030 404.476807,252.371536 384.760468,265.995209 
	C374.518829,273.072021 363.668549,273.615936 351.843231,272.375427 
M349.566284,212.921249 
	C335.087524,220.905396 334.742798,240.504166 345.088074,249.957047 
	C351.810486,256.099579 364.527985,258.095795 373.056702,253.017532 
	C381.721069,247.858429 385.913849,236.334045 383.293427,226.680389 
	C379.744019,213.604446 364.253632,205.255981 349.566284,212.921249 
z"/>
<path fill="#FFFFFF" opacity="1.000000" stroke="none" 
	d="
M174.000000,393.000000 
	C137.671906,393.000000 101.843803,393.001160 66.015701,392.999023 
	C58.705879,392.998596 57.002415,391.323730 57.001423,384.124634 
	C56.997818,357.961792 56.996742,331.798950 57.002205,305.636108 
	C57.003635,298.783417 58.811123,297.002167 65.755043,297.001709 
	C113.248108,296.998444 160.741180,296.998474 208.234238,297.001648 
	C215.187088,297.002136 216.996292,298.780304 216.997726,305.625397 
	C217.003281,331.954895 217.005524,358.284363 216.996078,384.613861 
	C216.993713,391.164703 215.132782,392.990845 208.494919,392.997070 
	C197.163284,393.007721 185.831635,393.000000 174.000000,393.000000 
M73.000000,329.501770 
	C73.000000,345.263092 73.000000,361.024414 73.000000,376.713440 
	C91.976883,376.713440 110.380081,376.713440 128.713593,376.713440 
	C128.713593,355.356262 128.713593,334.286896 128.713593,313.286804 
	C110.022621,313.286804 91.619423,313.286804 73.000000,313.286804 
	C73.000000,318.548309 73.000000,323.525787 73.000000,329.501770 
M198.322266,376.999725 
	C201.207703,377.489349 201.028091,375.606598 201.018860,373.666138 
	C200.976013,364.667236 200.999985,355.668030 200.999985,346.668915 
	C201.000015,335.556793 201.000000,324.444672 201.000000,313.230530 
	C182.139191,313.230530 163.735291,313.230530 145.232727,313.230530 
	C145.232727,334.532166 145.232727,355.602539 145.232727,377.000000 
	C162.758484,377.000000 180.053360,377.000000 198.322266,376.999725 
z"/>

</svg>