<svg version="1.1" id="Layer_1" xmlns="http://www.w3.org/2000/svg" xmlns:xlink="http://www.w3.org/1999/xlink" x="0px" y="0px"
	 width="100%" viewBox="0 0 512 512" enable-background="new 0 0 512 512" xml:space="preserve">
<path fill="#1565C0" opacity="1.000000" stroke="none" 
	d="
M225.000000,0.999998 
	C229.689255,1.000000 234.378510,1.000000 239.193146,1.221959 
	C247.286728,9.316180 254.650269,17.943775 263.347290,24.905556 
	C282.237854,40.027061 304.271210,49.473888 327.066437,57.002304 
	C350.226593,64.651230 373.838989,70.618752 398.196716,72.972374 
	C414.422821,74.540260 430.673737,76.339226 446.946594,76.761383 
	C457.471680,77.034424 463.958618,82.129128 463.924866,93.275009 
	C463.753693,149.853867 463.262390,206.431717 463.052979,263.010559 
	C462.998505,277.731384 461.113403,292.126495 458.154510,306.539276 
	C453.186401,330.738586 443.725647,353.056824 431.233551,374.147583 
	C419.026337,394.757416 404.099670,413.329620 386.134949,429.180817 
	C373.243530,440.555542 360.189301,451.945892 346.082642,461.702545 
	C314.235413,483.729126 279.528381,500.174255 242.297394,511.122742 
	C241.729980,511.289581 241.426605,512.354309 241.000000,513.000000 
	C235.645065,513.000000 230.290146,513.000000 224.663025,512.636230 
	C222.783356,511.588013 221.221497,510.756744 219.561600,510.240906 
	C190.858292,501.321228 163.589096,489.138428 137.710266,473.903229 
	C119.175812,462.991699 101.601685,450.575256 85.764542,436.054932 
	C66.632393,418.513611 49.178967,399.397858 35.509274,377.076538 
	C25.884569,361.360291 18.002361,344.817841 12.344476,327.363159 
	C7.456574,312.283905 3.714694,296.820770 2.896583,280.831573 
	C2.863775,280.190369 1.658821,279.609161 1.000000,279.000000 
	C1.000000,214.645767 1.000000,150.291550 1.249861,85.800163 
	C4.807733,81.570038 7.963087,77.389153 13.940131,76.974388 
	C32.002350,75.720993 50.135101,74.994987 68.088524,72.813736 
	C83.118927,70.987610 98.121574,68.139381 112.804153,64.428673 
	C135.234039,58.760006 157.016174,51.188374 177.591064,40.177032 
	C191.469452,32.749561 204.403519,24.311291 215.354416,13.033546 
	C218.919464,9.362089 221.804138,5.029957 225.000000,0.999998 
M155.999924,277.500000 
	C156.000076,299.988953 155.972092,322.477936 156.015259,344.966797 
	C156.030899,353.118866 161.423248,358.947998 169.287369,358.962280 
	C211.433182,359.038727 253.579269,359.033600 295.725098,358.964783 
	C303.001526,358.952911 308.928345,353.216248 308.950897,346.008209 
	C309.056152,312.358429 309.079926,278.707733 308.929779,245.058289 
	C308.898865,238.134460 304.143829,231.406189 295.419647,231.956100 
	C291.357330,232.212128 287.265533,231.999832 283.000702,231.999832 
	C283.000702,222.992859 283.069672,214.835297 282.986725,206.679276 
	C282.798462,188.169998 275.501526,173.557434 259.772827,163.182892 
	C232.777756,145.377090 195.199875,157.984589 185.118439,188.729263 
	C183.212051,194.543045 182.495056,200.880707 182.122665,207.030746 
	C181.624954,215.250229 181.999557,223.522552 181.999557,231.999435 
	C177.706024,231.999435 174.186951,232.302963 170.737991,231.940048 
	C161.907196,231.010849 155.723984,238.024063 155.940460,246.516266 
	C156.195099,256.504852 156.000000,266.504913 155.999924,277.500000 
z"/>
</svg>