<svg version="1.1" id="Layer_1" xmlns="http://www.w3.org/2000/svg" xmlns:xlink="http://www.w3.org/1999/xlink" x="0px" y="0px"
	 width="100%" viewBox="0 0 512 512" enable-background="new 0 0 512 512" xml:space="preserve">
<path fill="#FFFFFF" opacity="1.000000" stroke="none" 
	d="
M1.000008,384.468689 
	C1.665884,383.346283 2.854548,382.741852 2.921534,382.031647 
	C4.840864,361.683197 8.924180,341.772095 16.096149,322.650024 
	C22.004839,306.896118 29.878548,292.209351 41.043304,279.277466 
	C55.425732,262.618652 73.725677,253.169876 94.840416,249.264954 
	C105.605469,247.274124 116.975388,245.601898 127.268379,252.040512 
	C136.689728,257.933899 145.857300,264.254395 155.455933,269.837921 
	C170.028748,278.314972 185.610703,283.821747 202.500427,286.143250 
	C225.507812,289.305573 246.641785,283.479309 266.898163,273.814484 
	C276.561157,269.204010 285.684052,263.165070 294.329559,256.793518 
	C305.163239,248.809372 316.482208,246.772064 329.696472,248.763855 
	C345.504517,251.146622 359.812500,256.301239 372.932526,265.349304 
	C385.165253,273.785461 393.701263,285.306580 401.290588,297.734192 
	C413.648071,317.969727 419.843872,340.457611 423.737762,363.446014 
	C426.381317,379.052948 426.681396,395.058472 427.988770,410.889099 
	C428.394470,415.801666 429.138885,420.746643 428.916870,425.639954 
	C428.033112,445.118103 424.412415,463.756042 412.067413,479.779297 
	C400.942230,494.219238 386.976685,504.240021 369.319946,509.039490 
	C365.966064,509.951141 362.705872,511.207458 359.701233,512.652344 
	C263.312439,513.000000 166.624878,513.000000 69.765991,512.656860 
	C68.774521,511.876404 67.996269,511.315369 67.127663,511.021027 
	C59.858307,508.557587 52.029491,507.141663 45.390327,503.532013 
	C22.951859,491.332520 7.597999,473.354919 2.919094,447.472046 
	C2.812951,446.884888 1.663041,446.486450 1.000003,446.000000 
	C1.000000,425.645782 1.000000,405.291534 1.000008,384.468689 
M239.500000,483.000000 
	C269.822479,483.000000 300.147736,483.228912 330.465759,482.862305 
	C339.708679,482.750519 349.206299,482.067047 358.107117,479.778229 
	C376.918152,474.941010 390.124542,463.447510 395.019562,443.896545 
	C397.568481,433.715973 398.533905,423.533508 397.153748,412.935791 
	C395.212158,398.026642 395.123352,382.855255 392.799225,368.022095 
	C389.861572,349.273346 384.685730,331.065338 374.902588,314.427460 
	C364.654419,296.998749 350.850586,284.326630 330.512268,280.351227 
	C325.737366,279.417908 320.316193,279.051056 315.780548,280.400604 
	C311.199097,281.763824 307.276642,285.479980 303.188934,288.341614 
	C279.349884,305.030334 253.029449,315.360352 224.033218,317.844818 
	C207.666550,319.247162 191.487442,316.854034 175.591858,312.300415 
	C156.334564,306.783752 139.158813,297.340942 122.642639,286.296021 
	C116.697647,282.320404 111.416077,278.067902 102.438446,279.599304 
	C80.428047,283.353882 65.128693,295.276550 54.562912,314.014496 
	C38.672081,342.196167 33.679764,373.254974 32.145107,404.975739 
	C31.579563,416.665253 31.538568,428.603271 33.260056,440.128967 
	C35.972527,458.289429 47.132912,470.402283 64.046074,477.666595 
	C74.395897,482.111877 85.312340,482.714874 96.052490,482.812775 
	C143.531616,483.245667 191.016922,483.000000 239.500000,483.000000 
z"/>
<path fill="#FFFFFF" opacity="1.000000" stroke="none" 
	d="
M234.531342,0.999998 
	C235.652328,1.665921 236.217499,2.787445 236.969681,2.931342 
	C257.375122,6.835000 275.071198,16.068136 290.951996,29.348717 
	C305.310150,41.355976 316.330414,55.742859 324.233704,72.639160 
	C329.607880,84.128418 333.113831,96.111610 333.974915,108.789246 
	C334.455048,115.857803 335.122162,122.957672 334.918854,130.020798 
	C334.161224,156.342896 325.736481,179.946182 309.044556,200.471161 
	C296.848206,215.468231 282.644257,228.069946 265.060852,236.385483 
	C253.078262,242.052277 240.444473,245.529785 227.183731,247.093185 
	C207.231857,249.445450 187.839325,247.661301 168.889389,241.016846 
	C154.866623,236.100037 142.607086,228.324860 131.196838,218.834808 
	C116.387466,206.517700 105.017242,191.633072 97.750336,173.989090 
	C93.755875,164.290588 90.829437,153.884705 89.281601,143.519989 
	C87.681183,132.803177 87.372940,121.676125 88.204491,110.859612 
	C89.825203,89.777939 97.030014,70.293762 109.492119,53.182110 
	C122.029221,35.967480 137.457153,21.593891 157.029129,12.717299 
	C166.430573,8.453401 176.732803,6.179104 186.612701,2.959568 
	C187.334625,2.724314 187.939117,2.128683 188.299103,1.350299 
	C203.354233,1.000000 218.708450,1.000000 234.531342,0.999998 
M141.988861,185.482147 
	C146.820480,189.983765 151.325745,194.910446 156.539917,198.913803 
	C179.757523,216.739777 206.023712,220.704849 234.001251,214.416656 
	C255.098495,209.674881 271.511780,197.404388 284.887360,180.661057 
	C303.751465,157.047256 308.208221,129.991348 301.505798,101.560989 
	C294.967438,73.826614 277.082245,53.675163 251.973938,40.679989 
	C231.494736,30.080679 209.282623,28.883387 187.269943,34.523663 
	C160.588684,41.360168 141.254013,58.409786 128.325226,82.425217 
	C118.729729,100.248962 117.298943,119.544113 119.924820,139.403320 
	C122.249130,156.981766 129.861481,171.885757 141.988861,185.482147 
z"/>
</svg>