<svg version="1.1" id="Layer_1" xmlns="http://www.w3.org/2000/svg" xmlns:xlink="http://www.w3.org/1999/xlink" x="0px" y="0px"
	 width="100%" viewBox="0 0 512 512" enable-background="new 0 0 512 512" xml:space="preserve">
<path fill="#AFAFAF" opacity="1.000000" stroke="none" 
	d="
M0.999998,384.468658 
	C1.663729,383.349976 2.787985,382.783203 2.922828,382.037537 
	C5.353384,368.597290 6.871236,354.937042 10.176522,341.722107 
	C15.950881,318.635529 25.401621,297.180145 41.419060,279.005676 
	C56.884876,261.457092 76.198288,251.789658 99.267197,248.914871 
	C107.317688,247.911621 115.484734,246.349823 122.951591,250.136459 
	C131.176865,254.307693 139.194077,259.076538 146.712631,264.414978 
	C162.253357,275.449432 179.495804,282.468445 198.006042,285.758972 
	C216.352585,289.020386 234.335480,286.188446 252.079361,280.160065 
	C269.827850,274.130157 284.522156,263.007599 299.937286,253.173492 
	C308.347046,247.808487 317.050293,247.034836 325.858978,248.262527 
	C335.719147,249.636765 345.563660,252.276031 354.949127,255.657700 
	C373.120300,262.204987 386.452484,274.996063 396.992432,290.909729 
	C410.024689,310.586365 417.461975,332.389374 422.064697,355.374603 
	C425.879791,374.426483 427.557312,393.596954 428.326172,413.017517 
	C428.805023,425.112762 428.330597,436.841064 426.030853,448.627228 
	C423.688049,460.634064 418.798309,471.547455 411.293549,481.084320 
	C401.053802,494.096649 387.879517,503.219177 372.097870,508.429138 
	C367.855225,509.829742 363.563812,511.082428 359.647400,512.701538 
	C263.312439,513.000000 166.624878,513.000000 69.825180,512.710449 
	C64.259415,510.609711 58.679722,509.106628 53.373375,506.935486 
	C26.459045,495.923309 9.012519,476.741882 2.926503,447.868896 
	C2.773454,447.142853 1.663608,446.618439 0.999998,446.000000 
	C1.000000,425.645782 1.000000,405.291534 0.999998,384.468658 
M119.500000,482.999939 
	C190.153839,482.999939 260.808044,483.106140 331.461060,482.867126 
	C340.408875,482.836823 349.628113,482.049622 358.238159,479.779510 
	C376.989563,474.835541 390.200439,463.362488 395.035736,443.814148 
	C397.566895,433.581024 398.563751,423.340302 397.149628,412.689636 
	C395.207916,398.065521 395.022034,383.196106 392.828979,368.620575 
	C389.972534,349.635742 384.763824,331.260040 374.889099,314.440247 
	C364.655121,297.008636 350.901306,284.292023 330.527740,280.377716 
	C325.726379,279.455231 320.306152,279.114227 315.725372,280.432892 
	C311.233704,281.725830 307.392731,285.392151 303.363007,288.157959 
	C280.498627,303.851105 255.770218,314.301025 227.844177,317.194336 
	C213.051056,318.726959 198.619919,317.794006 184.330032,314.586243 
	C162.695084,309.729736 143.045868,300.343506 124.865593,287.582062 
	C117.742729,282.582245 110.790146,276.746277 100.380409,279.799438 
	C89.982018,282.849274 79.700668,285.807587 71.487747,293.113953 
	C55.144131,307.653503 46.683384,326.760986 40.999180,347.354248 
	C36.649948,363.111053 33.343773,379.077545 33.035156,395.473206 
	C32.758965,410.146210 31.581871,424.994934 33.298222,439.470154 
	C36.299107,464.778778 57.276321,479.451355 80.728271,481.832245 
	C93.229515,483.101410 105.903809,482.665985 119.500000,482.999939 
z"/>
<path fill="#AFAFAF" opacity="1.000000" stroke="none" 
	d="
M233.531342,1.000001 
	C234.623703,1.663415 235.166351,2.798560 235.882889,2.921671 
	C257.144287,6.574718 275.370697,16.220982 291.734558,30.099712 
	C305.339935,41.638893 315.867706,55.403214 323.646698,71.304955 
	C329.479553,83.228447 332.652252,95.885994 334.136566,109.151886 
	C336.231232,127.873108 334.856140,146.112625 329.029327,164.000275 
	C321.429169,187.331741 307.070496,205.844208 288.324921,221.325195 
	C277.882172,229.949295 266.506897,236.900284 253.618698,240.938553 
	C245.309601,243.542053 236.726318,245.539627 228.119614,246.841522 
	C220.811264,247.947037 213.279175,248.137360 205.870667,247.914795 
	C180.349014,247.147995 157.384537,239.057129 136.950043,223.542053 
	C119.466148,210.267227 105.998199,193.810959 97.516449,173.679382 
	C93.654785,164.513687 90.679596,154.665894 89.294930,144.846497 
	C87.709137,133.600784 87.314095,121.960991 88.223206,110.638664 
	C89.903046,89.717216 97.088631,70.428558 109.487762,53.341892 
	C122.002945,36.095303 137.318680,21.790562 156.798019,12.879455 
	C166.290314,8.537063 176.706757,6.218473 186.689331,2.936515 
	C187.415405,2.697803 188.014572,2.073092 188.336365,1.313921 
	C203.020889,1.000000 218.041794,1.000000 233.531342,1.000001 
M155.564240,49.957680 
	C148.643387,57.207756 140.933853,63.865162 134.954239,71.822540 
	C119.023964,93.021736 116.100380,117.546516 120.248550,142.853073 
	C123.188446,160.788406 132.439133,175.830292 145.201645,188.982895 
	C168.228897,212.714050 196.281723,220.601685 228.137344,215.799683 
	C250.632889,212.408615 268.820862,200.358627 283.154175,183.125076 
	C300.447113,162.333038 306.593964,138.209747 303.165253,111.210602 
	C300.485992,90.112961 290.892151,72.759949 276.337280,58.166775 
	C267.514740,49.321037 257.206055,41.929104 245.127258,37.558895 
	C225.912125,30.606703 206.449554,29.903761 186.664795,34.713619 
	C175.398636,37.452518 165.527298,42.994446 155.564240,49.957680 
z"/>
</svg>