<svg version="1.1" id="Layer_1" xmlns="http://www.w3.org/2000/svg" xmlns:xlink="http://www.w3.org/1999/xlink" x="0px" y="0px"
	 width="100%" viewBox="0 0 512 512" enable-background="new 0 0 512 512" xml:space="preserve">
<path fill="#1565C0" opacity="1.000000" stroke="none"
	d="
M106.531342,1.000000 
	C107.000000,9.666074 106.806664,18.338379 107.085709,26.995457 
	C107.215302,31.015823 105.891075,32.110901 101.949799,32.081989 
	C79.119263,31.914526 56.286861,31.999838 33.455090,32.005680 
	C32.812771,32.005844 32.170464,32.073982 31.138096,32.132557 
	C31.138096,56.990437 31.138096,81.730438 31.138096,107.000000 
	C21.144402,107.000000 11.540857,107.000000 1.468657,107.000000 
	C1.000000,71.739723 1.000000,36.479443 1.000000,1.000000 
	C36.020588,1.000000 71.041634,1.000000 106.531342,1.000000 
z"/>
<path fill="#1565C0" opacity="1.000000" stroke="none"
	d="
M407.468658,513.000000 
	C407.000000,504.333923 407.193329,495.661621 406.914276,487.004547 
	C406.784698,482.984161 408.108948,481.889099 412.050201,481.917999 
	C434.880707,482.085449 457.713135,482.000183 480.544891,481.994354 
	C481.186920,481.994171 481.828949,481.926025 482.861908,481.867401 
	C482.861908,457.009552 482.861908,432.269562 482.861908,407.000000 
	C492.855621,407.000000 502.459137,407.000000 512.531372,407.000000 
	C513.000000,442.260284 513.000000,477.520538 513.000000,513.000000 
	C477.979401,513.000000 442.958374,513.000000 407.468658,513.000000 
z"/>
<path fill="#1565C0" opacity="1.000000" stroke="none"
	d="
M1.000000,407.468658 
	C10.810326,407.000000 20.620651,407.000000 30.828831,407.000000 
	C30.828831,431.957031 30.828831,456.697021 30.828831,481.756165 
	C32.643166,481.850525 34.080326,481.989502 35.517567,481.990417 
	C57.682709,482.004181 79.848633,482.094147 102.012321,481.913910 
	C106.040619,481.881165 107.207527,483.135315 107.081383,487.067047 
	C106.814323,495.391235 107.000000,503.729919 107.000000,512.531372 
	C71.739723,513.000000 36.479446,513.000000 1.000000,513.000000 
	C1.000000,477.979401 1.000000,442.958374 1.000000,407.468658 
z"/>
<path fill="#1565C0" opacity="1.000000" stroke="none"
	d="
M513.000000,106.531342 
	C503.189667,107.000000 493.379364,107.000000 483.171173,107.000000 
	C483.171173,82.042984 483.171173,57.302998 483.171173,32.243828 
	C481.356842,32.149475 479.919678,32.010509 478.482452,32.009613 
	C456.317291,31.995831 434.151398,31.905849 411.987701,32.086075 
	C407.959442,32.118832 406.792480,30.864750 406.918610,26.933020 
	C407.185669,18.608816 407.000000,10.270086 407.000000,1.468657 
	C442.260284,1.000000 477.520538,1.000000 513.000000,1.000000 
	C513.000000,36.020588 513.000000,71.041634 513.000000,106.531342 
z"/>
<path fill="#1565C0" opacity="1.000000" stroke="none"
	d="
M149.000000,208.000000 
	C119.524605,208.000000 90.549210,208.000000 61.287182,208.000000 
	C61.287182,159.046448 61.287182,110.310669 61.287182,61.287178 
	C109.953560,61.287178 158.689331,61.287178 207.712830,61.287178 
	C207.712830,109.953568 207.712830,158.689331 207.712830,208.000000 
	C188.357666,208.000000 168.928833,208.000000 149.000000,208.000000 
M92.000000,145.500000 
	C92.000000,155.930496 92.000000,166.360992 92.000000,176.712677 
	C120.644936,176.712677 148.714249,176.712677 176.712692,176.712677 
	C176.712692,148.355103 176.712692,120.285789 176.712692,92.287285 
	C148.355148,92.287285 120.285828,92.287285 92.000000,92.287285 
	C92.000000,109.882454 92.000000,127.191223 92.000000,145.500000 
z"/>
<path fill="#1565C0" opacity="1.000000" stroke="none"
	d="
M142.000000,453.000000 
	C114.857780,453.000000 88.215553,453.000000 61.286964,453.000000 
	C61.286964,404.045990 61.286964,355.310211 61.286964,306.286957 
	C109.953987,306.286957 158.689774,306.286957 207.713043,306.286957 
	C207.713043,354.953979 207.713043,403.689789 207.713043,453.000000 
	C186.023621,453.000000 164.261810,453.000000 142.000000,453.000000 
M92.000000,383.500000 
	C92.000000,396.263000 92.000000,409.025970 92.000000,421.713074 
	C120.644142,421.713074 148.713455,421.713074 176.713074,421.713074 
	C176.713074,393.355896 176.713074,365.286560 176.713074,337.286926 
	C148.355911,337.286926 120.286591,337.286926 92.000000,337.286926 
	C92.000000,352.548553 92.000000,367.524292 92.000000,383.500000 
z"/>
<path fill="#1565C0" opacity="1.000000" stroke="none"
	d="
M447.890472,208.000000 
	C400.434570,208.000000 353.468872,208.000000 306.251892,208.000000 
	C306.251892,158.974197 306.251892,110.237442 306.251892,61.250130 
	C355.029327,61.250130 403.766083,61.250130 452.751617,61.250130 
	C452.751617,110.032669 452.751617,158.769272 452.751617,208.000000 
	C451.265106,208.000000 449.822876,208.000000 447.890472,208.000000 
M413.466309,177.000000 
	C416.573608,177.000000 419.680908,177.000000 422.722412,177.000000 
	C422.722412,148.375931 422.722412,120.306084 422.722412,92.278519 
	C394.040710,92.278519 365.637543,92.278519 337.279480,92.278519 
	C337.279480,120.627823 337.279480,148.697708 337.279480,177.000000 
	C362.531128,177.000000 387.504028,177.000000 413.466309,177.000000 
z"/>
<path fill="#1565C0" opacity="1.000000" stroke="none"
	d="
M351.000000,453.000000 
	C342.856964,453.000000 335.213898,453.000000 327.286377,453.000000 
	C327.286377,442.714172 327.286377,432.642700 327.286377,422.170471 
	C338.954529,422.170471 350.696930,422.170471 362.833801,422.170471 
	C362.833801,414.708191 362.833801,407.632080 362.833801,400.280090 
	C373.298706,400.280090 383.370026,400.280090 393.843140,400.280090 
	C393.843140,407.301300 393.843140,414.377625 393.843140,421.724579 
	C403.641449,421.724579 413.046173,421.724579 422.846558,421.724579 
	C422.846558,388.355560 422.846558,354.953735 422.846558,321.276917 
	C432.971893,321.276917 442.709900,321.276917 452.725159,321.276917 
	C452.725159,364.974243 452.725159,408.705933 452.725159,453.000000 
	C419.014252,453.000000 385.257141,453.000000 351.000000,453.000000 
z"/>
<path fill="#1565C0" opacity="1.000000" stroke="none"
	d="
M242.000000,321.003967 
	C242.000000,315.861237 242.000000,311.217804 242.000000,306.288025 
	C252.281342,306.288025 262.351868,306.288025 272.818787,306.288025 
	C272.818787,324.614227 272.818787,343.018219 272.818787,361.817596 
	C280.274323,361.817596 287.350800,361.817596 294.711243,361.817596 
	C294.711243,372.279846 294.711243,382.350403 294.711243,392.821747 
	C287.720825,392.821747 280.644897,392.821747 273.286682,392.821747 
	C273.286682,402.617279 273.286682,412.021240 273.286682,422.000031 
	C279.971924,422.000031 286.741852,422.160919 293.498779,421.934296 
	C297.041687,421.815491 298.143036,423.078918 298.064331,426.551483 
	C297.868683,435.184326 297.999969,443.824554 297.999969,452.729736 
	C279.349030,452.729736 260.948181,452.729736 242.000000,452.729736 
	C242.000000,409.004303 242.000000,365.253784 242.000000,321.003967 
z"/>
<path fill="#1565C0" opacity="1.000000" stroke="none"
	d="
M298.000000,242.000000 
	C315.475128,242.000000 332.450256,242.000000 349.712250,242.000000 
	C349.712250,251.949783 349.712250,261.688385 349.712250,271.714844 
	C312.377808,271.714844 274.977020,271.714844 237.287781,271.714844 
	C237.287781,262.050201 237.287781,252.311569 237.287781,242.000000 
	C257.311798,242.000000 277.405884,242.000000 298.000000,242.000000 
z"/>
<path fill="#1565C0" opacity="1.000000" stroke="none"
	d="
M364.394135,337.402832 
	C364.056305,344.701080 364.056305,351.654144 364.056305,358.800781 
	C353.534973,358.800781 343.464996,358.800781 332.995728,358.800781 
	C332.995728,351.533813 332.995728,344.455383 332.995728,336.990906 
	C324.862701,336.990906 317.117676,336.990906 309.192657,336.990906 
	C309.192657,326.643097 309.192657,316.690216 309.192657,306.368347 
	C335.242676,306.368347 361.427094,306.368347 387.794922,306.368347 
	C387.794922,316.476990 387.794922,326.546967 387.794922,337.057709 
	C379.973999,337.057709 372.352966,337.057709 364.394135,337.402832 
z"/>
<path fill="#1565C0" opacity="1.000000" stroke="none"
	d="
M453.000000,260.000916 
	C453.000000,270.809082 453.000000,281.117523 453.000000,291.712341 
	C443.050873,291.712341 433.313110,291.712341 423.173889,291.712341 
	C423.173889,285.383057 423.173889,278.973267 423.173889,272.171753 
	C408.377991,272.171753 393.971527,272.171753 379.284424,272.171753 
	C379.284424,262.044159 379.284424,252.306503 379.284424,242.283173 
	C403.624878,242.283173 428.025238,242.283173 453.000000,242.283173 
	C453.000000,247.973450 453.000000,253.737350 453.000000,260.000916 
z"/>
<path fill="#1565C0" opacity="1.000000" stroke="none"
	d="
M242.000000,180.000000 
	C242.000000,160.192368 242.000000,140.884750 242.000000,121.288956 
	C252.280594,121.288956 262.352234,121.288956 272.713135,121.288956 
	C272.713135,149.951996 272.713135,178.686554 272.713135,207.710999 
	C262.719513,207.710999 252.647858,207.710999 242.000000,207.710999 
	C242.000000,198.694641 242.000000,189.597321 242.000000,180.000000 
z"/>
<path fill="#1565C0" opacity="1.000000" stroke="none"
	d="
M181.000000,242.000000 
	C190.142868,242.000000 198.785751,242.000000 207.713440,242.000000 
	C207.713440,251.952057 207.713440,261.690399 207.713440,271.715607 
	C179.043076,271.715607 150.308578,271.715607 121.286591,271.715607 
	C121.286591,262.048065 121.286591,252.309708 121.286591,242.000000 
	C140.979462,242.000000 160.739731,242.000000 181.000000,242.000000 
z"/>
<path fill="#1565C0" opacity="1.000000" stroke="none"
	d="
M263.961243,61.000000 
	C267.103088,61.000000 269.750214,61.000000 272.988037,61.000000 
	C272.988037,70.599823 273.080292,80.024506 272.836395,89.440475 
	C272.813568,90.321571 270.683533,91.858932 269.504120,91.886116 
	C260.534943,92.092819 251.558853,91.999275 242.293182,91.999275 
	C242.293182,81.731461 242.293182,71.662796 242.293182,61.000000 
	C249.279373,61.000000 256.372925,61.000000 263.961243,61.000000 
z"/>
<path fill="#1565C0" opacity="1.000000" stroke="none"
	d="
M92.000000,267.862793 
	C92.392914,270.956818 91.707092,272.152130 88.639160,272.077576 
	C79.654648,271.859283 70.661415,271.999908 61.336044,271.999908 
	C61.336044,262.150391 61.336044,252.409714 61.336044,242.333405 
	C71.188667,242.333405 81.262428,242.333405 92.000000,242.333405 
	C92.000000,250.535812 92.000000,258.956573 92.000000,267.862793 
z"/>
<path fill="#1565C0" opacity="1.000000" stroke="none"
	d="
M119.000000,140.962372 
	C119.000000,133.493637 119.000000,126.520790 119.000000,119.275269 
	C129.307831,119.275269 139.378174,119.275269 149.725433,119.275269 
	C149.725433,129.309280 149.725433,139.379593 149.725433,149.726135 
	C139.689270,149.726135 129.619049,149.726135 119.000000,149.726135 
	C119.000000,147.003204 119.000000,144.230743 119.000000,140.962372 
z"/>
<path fill="#1565C0" opacity="1.000000" stroke="none"
	d="
M134.001221,364.000000 
	C139.476151,364.000000 144.452301,364.000000 149.713348,364.000000 
	C149.713348,374.284058 149.713348,384.354370 149.713348,394.713531 
	C139.715561,394.713531 129.645248,394.713531 119.286285,394.713531 
	C119.286285,384.715210 119.286285,374.644897 119.286285,364.000000 
	C123.969757,364.000000 128.736099,364.000000 134.001221,364.000000 
z"/>
<path fill="#1565C0" opacity="1.000000" stroke="none"
	d="
M395.000000,144.888779 
	C395.000000,146.819672 395.000000,148.262024 395.000000,149.848465 
	C384.557953,149.848465 374.605713,149.848465 364.326355,149.848465 
	C364.326355,139.797089 364.326355,129.723984 364.326355,119.324310 
	C374.207153,119.324310 384.280151,119.324310 395.000000,119.324310 
	C395.000000,127.555367 395.000000,135.977798 395.000000,144.888779 
z"/>
</svg>