<svg version="1.1" id="Layer_1" xmlns="http://www.w3.org/2000/svg" xmlns:xlink="http://www.w3.org/1999/xlink" x="0px" y="0px"
	 width="100%" viewBox="0 0 510 415" enable-background="new 0 0 510 415" xml:space="preserve">

<path fill="#3B97D3" opacity="1.000000" stroke="none" 
	d="
M416.994263,356.029846 
	C405.196320,365.652069 393.388916,375.262787 381.604309,384.901337 
	C375.764465,389.677704 370.128021,394.721802 364.088837,399.228363 
	C360.475311,401.924896 356.175781,401.733032 352.982758,398.364716 
	C348.473267,393.607635 344.147003,388.623291 340.236633,383.368347 
	C336.971313,378.980347 339.298645,373.072723 344.978455,368.484131 
	C357.987061,357.974823 370.848846,347.283936 383.802979,336.706940 
	C396.113037,326.655853 408.520081,316.722870 420.781555,306.613098 
	C431.427734,297.835144 441.908813,288.857239 452.501404,280.013885 
	C464.338104,270.131897 476.151062,260.219330 488.116333,250.494751 
	C492.227570,247.153427 498.423004,248.891724 501.974915,253.587952 
	C504.628357,257.096313 507.662903,260.316376 510.763855,263.332397 
	C511.000000,268.022095 511.000000,273.044189 510.761932,278.200134 
	C497.896118,288.835083 485.291016,299.363556 472.631348,309.826019 
	C466.077637,315.242279 459.427246,320.541504 452.495728,325.984985 
	C441.122772,335.133881 430.062500,344.176666 419.050293,353.277588 
	C418.192566,353.986450 417.671692,355.102875 416.994263,356.029846 
z"/>
<path fill="#285680" opacity="1.000000" stroke="none" 
	d="
M122.468658,416.000000 
	C121.999809,396.321014 121.999619,376.642059 122.113136,356.177826 
	C125.537346,352.385315 128.723907,349.226318 132.182907,346.400848 
	C140.654282,339.481079 149.251419,332.715363 157.797943,325.887634 
	C157.865097,355.612640 157.932266,385.337677 157.999710,415.531342 
	C146.312439,416.000000 134.624878,416.000000 122.468658,416.000000 
z"/>
<path fill="#285680" opacity="1.000000" stroke="none" 
	d="
M452.495697,325.984985 
	C452.880341,355.616608 452.940155,385.339661 453.000000,415.531342 
	C441.312439,416.000000 429.624878,416.000000 417.468658,416.000000 
	C416.999817,396.321106 416.999634,376.642212 416.996887,356.496582 
	C417.671692,355.102875 418.192566,353.986450 419.050293,353.277588 
	C430.062500,344.176666 441.122772,335.133881 452.495697,325.984985 
z"/>
<path fill="#285680" opacity="1.000000" stroke="none" 
	d="
M270.468658,416.000000 
	C270.000183,396.325745 270.000366,376.651489 270.048859,356.166077 
	C274.082489,351.712219 277.909119,347.874756 282.088043,344.469635 
	C289.482056,338.444641 297.090363,332.682678 304.608978,326.810638 
	C304.738831,329.955658 304.977753,333.100525 304.981384,336.245697 
	C305.011719,362.518005 304.998810,388.790344 304.999481,415.531342 
	C293.645782,416.000000 282.291534,416.000000 270.468658,416.000000 
z"/>
<path fill="#F0C419" opacity="1.000000" stroke="none" 
	d="
M127.541931,1.000000 
	C133.636398,8.455744 131.877014,17.138340 131.960297,25.476795 
	C132.026825,32.136768 128.346802,36.022800 122.440865,35.999649 
	C116.600945,35.976757 113.101761,32.044418 113.009300,25.320978 
	C112.958992,21.662365 113.208801,17.987658 112.949821,14.346771 
	C112.589615,9.282693 113.906158,4.981715 117.337181,1.254152 
	C120.361290,1.000000 123.722572,1.000000 127.541931,1.000000 
z"/>
<path fill="#F0C419" opacity="1.000000" stroke="none" 
	d="
M1.000000,117.458069 
	C8.454875,111.362976 17.136873,113.112137 25.474911,113.041534 
	C32.162220,112.984901 36.033054,116.671410 35.999580,122.587639 
	C35.966640,128.410431 32.009781,131.919083 25.329687,131.992477 
	C21.670843,132.032684 17.996508,131.792236 14.355461,132.049957 
	C9.290035,132.408478 4.984380,131.095551 1.254025,127.662804 
	C1.000000,124.638710 1.000000,121.277428 1.000000,117.458069 
z"/>
<path fill="#F0C419" opacity="1.000000" stroke="none" 
	d="
M180.036987,101.948715 
	C188.010010,125.337898 183.441010,145.845871 167.540833,163.902771 
	C155.633713,177.424942 140.066666,183.996475 122.447456,183.784073 
	C99.789055,183.510956 81.977249,173.494385 69.886642,153.767899 
	C63.724716,143.714371 60.721210,132.760468 61.181538,121.334923 
	C62.071831,99.237335 71.870636,81.837372 90.975395,69.954170 
	C100.798737,63.844032 111.615669,60.858322 122.851273,61.179436 
	C145.350189,61.822449 163.232880,71.476357 174.984924,91.186447 
	C176.941849,94.468521 178.343704,98.081566 180.036987,101.948715 
z"/>
<path fill="#3B97D3" opacity="1.000000" stroke="none" 
	d="
M304.819824,326.535034 
	C297.090363,332.682678 289.482056,338.444641 282.088043,344.469635 
	C277.909119,347.874756 274.082489,351.712219 270.048553,355.700287 
	C266.637024,358.559540 263.187378,360.966248 259.926147,363.605743 
	C245.668900,375.145081 231.587997,386.906433 217.181320,398.254852 
	C211.751297,402.532227 206.981598,401.158203 202.803848,395.552856 
	C199.769913,391.482239 196.210678,387.797119 193.258118,383.673462 
	C189.849121,378.912292 190.995483,374.500397 195.586487,370.719482 
	C206.359879,361.847198 216.926270,352.723694 227.688400,343.837463 
	C237.920959,335.388550 248.344879,327.171570 258.594177,318.742615 
	C268.999664,310.185211 279.266785,301.459747 289.645447,292.869385 
	C300.631897,283.775940 311.690186,274.769348 322.692719,265.695221 
	C327.125183,262.039612 331.652924,258.477570 335.856140,254.570480 
	C344.112000,246.896225 348.857117,246.997696 355.955780,255.489410 
	C358.687744,258.757477 361.299347,262.126801 363.941681,265.468994 
	C367.166382,269.547791 367.022461,274.909210 363.074585,278.322876 
	C355.001495,285.303589 346.715607,292.039246 338.479279,298.829712 
	C329.632660,306.123352 320.741394,313.362823 311.871857,320.628693 
	C309.587128,322.500305 307.310822,324.382233 304.819824,326.535034 
z"/>
<path fill="#3B97D3" opacity="1.000000" stroke="none" 
	d="
M157.988358,325.598785 
	C149.251419,332.715363 140.654282,339.481079 132.182907,346.400848 
	C128.723907,349.226318 125.537346,352.385315 122.110168,355.710999 
	C108.296791,367.219055 94.593384,378.400452 80.907516,389.603302 
	C76.842827,392.930511 73.039101,396.625092 68.731720,399.594116 
	C64.137825,402.760651 58.136215,400.259796 53.367279,393.802246 
	C51.528282,391.312103 49.984592,388.510803 47.780170,386.401031 
	C41.150307,380.055786 43.544724,373.775238 50.006485,368.495544 
	C62.953018,357.917358 75.851105,347.279846 88.801659,336.706604 
	C101.110977,326.656830 113.512619,316.719574 125.778763,306.617645 
	C136.297897,297.954468 146.667786,289.110321 157.131180,280.379211 
	C169.100052,270.391846 181.049805,260.380402 193.116928,250.512833 
	C196.540451,247.713348 202.491989,248.605240 205.613922,252.168411 
	C209.074127,256.117706 212.728561,259.978088 215.615692,264.330078 
	C220.587891,271.825165 218.884369,275.923248 210.838974,282.582001 
	C197.957047,293.243683 185.021133,303.840515 172.062485,314.408905 
	C167.503448,318.127014 162.810547,321.681000 157.988358,325.598785 
z"/>
<path fill="#F0C419" opacity="1.000000" stroke="none" 
	d="
M123.724434,209.002197 
	C129.655014,210.190826 131.906128,213.930832 131.982452,219.242752 
	C132.056534,224.398773 132.153625,229.562943 131.949432,234.711975 
	C131.763168,239.408554 128.309723,243.671188 124.772995,243.987091 
	C118.135811,244.579971 114.880646,243.528366 113.544113,236.695068 
	C112.262932,230.144714 112.731827,223.098267 113.410477,216.368546 
	C113.925522,211.261292 117.578621,209.163055 123.724434,209.002197 
z"/>
<path fill="#F0C419" opacity="1.000000" stroke="none" 
	d="
M229.875015,131.999786 
	C225.739990,131.999374 222.078217,132.138885 218.431213,131.966125 
	C212.784622,131.698639 209.105881,128.032028 209.000504,122.842766 
	C208.890991,117.449066 212.191284,113.442650 217.779999,113.094658 
	C223.572540,112.733978 229.420380,112.747742 235.215286,113.087753 
	C240.659729,113.407188 243.500778,117.231262 244.126831,122.174217 
	C244.819962,127.646736 240.206985,131.128799 235.332001,131.942780 
	C233.714874,132.212799 232.016235,131.994720 229.875015,131.999786 
z"/>
<path fill="#F0C419" opacity="1.000000" stroke="none" 
	d="
M197.634308,80.114319 
	C194.625214,73.435051 195.952377,69.285820 201.749039,66.036324 
	C206.539291,63.350998 211.244598,60.499767 216.134308,58.010349 
	C220.895493,55.586372 225.847168,57.044640 228.038757,61.143604 
	C230.519211,65.782860 229.302765,71.216064 224.830566,73.982269 
	C220.035492,76.948204 215.008545,79.536476 210.153931,82.409760 
	C205.449875,85.193924 201.438812,84.458359 197.634308,80.114319 
z"/>
<path fill="#F0C419" opacity="1.000000" stroke="none" 
	d="
M70.001968,16.509485 
	C73.549004,21.271004 76.903442,25.683153 80.012741,30.261770 
	C81.364273,32.251965 82.309731,34.542278 83.267906,36.770134 
	C85.218636,41.305744 83.342911,45.745140 78.595917,48.106316 
	C74.610664,50.088596 69.249535,48.694157 67.012230,44.966335 
	C64.358070,40.543964 61.813782,36.055485 59.235863,31.587585 
	C56.923702,27.580271 55.554096,23.324343 58.434940,19.175039 
	C61.196079,15.198147 65.559639,15.748546 70.001968,16.509485 
z"/>
<path fill="#F0C419" opacity="1.000000" stroke="none" 
	d="
M58.156410,225.541946 
	C58.080269,221.892166 57.286564,218.243790 58.461872,215.412888 
	C60.735283,209.936981 64.007339,204.855148 67.079185,199.738251 
	C69.240685,196.137756 75.037178,194.927246 78.898880,196.971024 
	C83.531654,199.422867 85.323364,203.887314 83.071602,208.435516 
	C80.497688,213.634445 77.820160,218.820633 74.702408,223.702469 
	C70.312515,230.576187 64.720871,231.166916 58.156410,225.541946 
z"/>
<path fill="#F0C419" opacity="1.000000" stroke="none" 
	d="
M161.023468,206.641464 
	C161.169785,201.128220 163.887665,197.100632 167.858673,196.081055 
	C171.902298,195.042831 176.386276,197.407608 178.993515,201.949890 
	C181.649048,206.576294 184.450455,211.126175 186.923264,215.848206 
	C189.322479,220.429626 187.999985,225.808548 184.273376,227.969437 
	C179.816574,230.553726 173.725067,229.260422 171.015366,224.770905 
	C167.513901,218.969559 164.350098,212.964401 161.023468,206.641464 
z"/>
<path fill="#F0C419" opacity="1.000000" stroke="none" 
	d="
M210.245117,183.749664 
	C205.349731,180.518738 199.310654,179.592651 196.825012,173.574081 
	C195.216660,169.679733 195.929077,166.596771 198.727173,163.783401 
	C201.516815,160.978516 204.708450,159.860352 208.457687,161.883713 
	C214.135849,164.948105 219.904343,167.863998 225.435989,171.174561 
	C229.269897,173.469086 230.319626,179.756500 228.025833,183.978806 
	C225.905853,187.881165 221.222260,189.206314 216.553085,187.115112 
	C214.491837,186.191925 212.526718,185.054153 210.245117,183.749664 
z"/>
<path fill="#F0C419" opacity="1.000000" stroke="none" 
	d="
M25.747036,187.996826 
	C20.861967,188.412628 17.253233,186.676208 16.301521,182.324478 
	C15.368366,178.057617 15.207809,173.500549 20.349195,170.880493 
	C25.810448,168.097427 30.985857,164.754425 36.440842,161.957809 
	C40.766109,159.740356 45.204418,161.320374 47.822189,165.532379 
	C50.016552,169.063141 49.301056,175.433594 45.750320,177.558807 
	C39.410072,181.353592 32.711002,184.548874 25.747036,187.996826 
z"/>
<path fill="#F0C419" opacity="1.000000" stroke="none" 
	d="
M16.002159,67.664062 
	C14.362220,58.957588 22.806877,54.111832 30.246746,58.655613 
	C35.058556,61.594349 40.099873,64.154671 44.966057,67.007843 
	C48.701385,69.197968 50.087044,74.594193 48.112259,78.576744 
	C45.895954,83.046356 41.166794,85.530746 37.200199,83.573120 
	C30.994331,80.510353 24.951443,77.065109 19.103523,73.364670 
	C17.570490,72.394608 17.010592,69.886665 16.002159,67.664062 
z"/>
<path fill="#F0C419" opacity="1.000000" stroke="none" 
	d="
M161.550415,43.054344 
	C161.733200,40.112759 161.651489,37.201752 162.765396,34.859280 
	C165.182693,29.775818 168.072296,24.897457 171.030228,20.096300 
	C173.738052,15.701125 179.292786,14.493485 183.905899,16.961256 
	C187.958755,19.129309 189.408005,24.104887 186.996048,28.850346 
	C184.146317,34.457119 181.220535,40.053772 177.884750,45.377247 
	C174.279297,51.131092 165.838150,49.933365 161.550415,43.054344 
z"/>
</svg>