<svg version="1.1" id="Layer_1" xmlns="http://www.w3.org/2000/svg" xmlns:xlink="http://www.w3.org/1999/xlink" x="0px" y="0px"
	 width="100%" viewBox="0 0 512 512" enable-background="new 0 0 512 512" xml:space="preserve">
<path fill="#000000" opacity="1.000000" stroke="none"
	d="
M430.000000,513.000000 
	C314.979095,513.000000 199.958206,513.000000 84.758934,512.693604 
	C82.320618,509.442566 79.663834,506.894897 81.813744,502.397888 
	C83.907928,498.017426 87.230080,497.807556 91.197922,497.962524 
	C95.439789,498.128204 99.693138,497.999878 103.999855,497.999878 
	C103.999855,490.289795 104.064072,483.293701 103.982704,476.299286 
	C103.892250,468.523956 107.730804,466.543549 113.899223,466.063995 
	C118.185036,465.730804 122.517670,465.999878 126.607613,465.999878 
	C129.803543,455.139618 132.927429,444.679565 135.957962,434.192535 
	C141.658859,414.464813 147.352051,394.734680 152.965057,374.981842 
	C162.787842,340.414520 172.462601,305.804810 182.388901,271.267365 
	C185.141632,261.689484 187.439331,252.251724 187.147995,242.077347 
	C186.623596,223.763458 186.999863,205.423782 186.999863,187.094879 
	C186.999863,185.488312 186.999863,183.881744 186.999863,182.251907 
	C157.421677,182.251907 128.354355,182.251907 99.254379,182.251907 
	C99.254379,187.246857 99.254379,191.986008 99.254379,196.999863 
	C101.470245,196.999863 103.442062,196.999817 105.413872,196.999878 
	C107.413391,196.999924 109.417229,196.915085 111.411583,197.016663 
	C116.728241,197.287415 119.893242,199.841080 119.953423,204.387680 
	C120.096764,215.216507 120.110046,226.050201 119.944168,236.878372 
	C119.879311,241.112335 116.523689,243.985794 112.280479,243.992249 
	C98.450523,244.013290 84.620468,244.021332 70.790543,243.990112 
	C64.967064,243.976974 63.018089,241.927155 63.005611,235.900665 
	C62.984570,225.736496 62.993244,215.572250 63.002518,205.408035 
	C63.007469,199.979385 65.887543,197.089600 71.431908,197.010223 
	C75.206192,196.956192 78.981873,196.999878 82.733513,196.999878 
	C82.733513,191.730331 82.733513,186.991455 82.733513,182.000137 
	C71.665833,182.000137 60.862499,182.009338 50.059196,181.995621 
	C45.714943,181.990112 42.510338,179.270233 42.001434,175.218826 
	C41.447880,170.812012 43.963413,167.206589 48.238220,166.000824 
	C77.727730,157.683014 107.214027,149.353638 136.688370,140.982239 
	C153.455399,136.220032 170.197891,131.371445 186.660614,126.645226 
	C186.660614,103.538010 186.660614,80.801933 186.660614,58.078777 
	C177.546158,57.877586 174.246399,56.063831 174.097946,50.859966 
	C174.041458,48.879292 174.466080,45.835381 175.744553,45.071064 
	C179.034851,43.104008 182.925049,42.140373 186.909302,40.650993 
	C186.909302,34.055290 186.909302,26.744072 186.909302,19.184412 
	C160.951614,26.596092 135.129532,33.969059 109.307434,41.342022 
	C122.434341,41.999859 135.424438,41.856037 148.405273,42.138321 
	C150.625671,42.186607 153.427368,43.510834 154.892090,45.182053 
	C159.771240,50.749115 154.365891,58.158501 147.831375,58.059483 
	C134.670914,57.860058 121.505302,58.000145 108.341812,58.000156 
	C105.255920,58.000160 102.170029,58.000153 99.346573,58.000153 
	C99.346573,63.435234 99.346573,68.176094 99.346573,72.999855 
	C101.686295,72.999855 103.680420,72.999847 105.674553,72.999847 
	C107.674072,72.999855 109.674294,72.965416 111.672966,73.006577 
	C116.894470,73.114098 119.940948,76.002159 119.978279,81.134773 
	C120.052208,91.298447 120.042046,101.463280 119.983261,111.627151 
	C119.951691,117.085785 116.980942,119.970718 111.411331,119.987175 
	C97.914703,120.027046 84.417877,120.012573 70.921158,119.993622 
	C65.966660,119.986671 63.019882,117.089005 63.007584,112.203514 
	C62.981995,102.039368 62.996292,91.875114 63.001221,81.710899 
	C63.004028,75.910484 65.802238,73.070480 71.628853,73.007484 
	C75.382080,72.966904 79.136108,72.999863 82.663544,72.999863 
	C82.663544,67.588913 82.663544,62.848648 82.663544,58.000153 
	C71.839020,58.000153 61.350437,58.016907 50.861946,57.992844 
	C45.871098,57.981392 42.607174,55.514000 42.005005,51.400394 
	C41.322876,46.740559 43.421726,43.580547 48.563885,42.022964 
	C58.688541,38.956173 68.823524,35.916622 79.004295,33.043175 
	C114.672630,22.976048 150.363953,12.990352 186.025360,2.898866 
	C186.492004,2.766815 186.681274,1.654681 187.000000,1.000001 
	C233.687561,1.000000 280.375122,1.000000 327.235779,1.334091 
	C327.887482,2.098502 328.298157,2.765031 328.854492,2.924992 
	C348.746674,8.644887 368.651398,14.321306 388.556671,19.995602 
	C414.314972,27.338394 440.086761,34.634247 465.824127,42.049664 
	C470.493713,43.395061 472.589111,46.865681 471.997375,51.291325 
	C471.439514,55.463562 468.213165,57.978565 463.246674,57.991608 
	C452.627533,58.019493 442.008240,58.000149 431.202057,58.000149 
	C431.202057,63.137192 431.202057,67.875160 431.202057,72.431480 
	C431.525513,72.722000 431.646118,72.925392 431.768707,72.926613 
	C435.433929,72.963326 439.100159,72.937546 442.764465,73.010017 
	C448.011780,73.113808 450.987610,76.050468 450.995361,81.105125 
	C451.011200,91.436325 451.015167,101.767601 450.993500,112.098778 
	C450.983124,117.037758 448.075165,119.984657 443.183105,119.992584 
	C429.685883,120.014458 416.188568,120.023926 402.691406,119.988983 
	C396.908722,119.974007 394.029602,117.055428 394.009277,111.229553 
	C393.975067,101.398338 393.973572,91.566826 394.009827,81.735634 
	C394.031189,75.938316 396.933990,73.056946 402.726288,73.006699 
	C406.804443,72.971313 410.883179,72.999855 414.806061,72.999855 
	C414.806061,67.639992 414.806061,63.018036 414.806061,58.202644 
	C385.544556,58.202644 356.476807,58.202644 327.204529,58.202644 
	C327.204529,81.145615 327.204529,103.906975 327.204529,126.592880 
	C328.509979,127.077431 329.680542,127.605682 330.902679,127.951736 
	C358.072968,135.645370 385.247803,143.322739 412.424164,150.994904 
	C430.178436,156.007111 447.930573,161.027069 465.696899,165.996124 
	C470.006653,167.201508 472.521576,170.726593 471.998718,175.153595 
	C471.516632,179.235123 468.331512,181.989059 464.005585,181.995087 
	C453.074829,182.010300 442.144073,182.000137 431.286926,182.000137 
	C431.286926,187.313126 431.286926,192.052689 431.286926,197.000259 
	C435.548798,197.000259 439.530884,196.892151 443.504425,197.029984 
	C447.661255,197.174149 450.955688,200.175613 450.976776,203.846451 
	C451.040924,215.010468 451.041870,226.175339 450.978790,237.339355 
	C450.954285,241.671921 448.559052,243.962463 444.269592,243.978836 
	C429.772766,244.034180 415.274719,244.086884 400.779114,243.942398 
	C396.874603,243.903488 394.193878,241.348038 394.098328,237.557449 
	C393.821350,226.566666 393.899261,215.562927 394.062775,204.567596 
	C394.110748,201.342316 395.319275,198.373779 399.214600,197.952866 
	C404.374786,197.395264 409.550812,196.984253 414.741486,196.508270 
	C414.741486,191.746964 414.741486,187.008118 414.741486,182.256790 
	C385.414551,182.256790 356.346771,182.256790 327.000549,182.256790 
	C327.000549,206.477097 326.999329,230.441803 327.007141,254.406509 
	C327.007355,255.065491 326.993103,255.756790 327.173248,256.378662 
	C331.991699,273.010742 336.843567,289.633148 341.671417,306.262512 
	C348.111664,328.445679 354.631927,350.606171 360.944824,372.825562 
	C369.750458,403.818634 378.396118,434.857117 387.144958,465.999878 
	C391.470184,465.999878 395.459717,465.898071 399.442230,466.022217 
	C406.598053,466.245239 410.266235,469.252045 410.045776,476.638062 
	C409.834381,483.718994 410.000122,490.811188 410.000122,497.999878 
	C413.161774,497.999878 415.652588,497.999908 418.143433,497.999908 
	C420.642914,497.999908 423.143158,497.961243 425.641754,498.007690 
	C431.358643,498.113922 434.789276,504.182343 431.989899,509.168549 
	C431.285767,510.422760 430.661133,511.721619 430.000000,513.000000 
M156.500000,481.968079 
	C144.387848,481.968079 132.275696,481.968079 120.144958,481.968079 
	C120.144958,487.645386 120.144958,492.675903 120.144958,497.687714 
	C211.660736,497.687714 302.747681,497.687714 393.857819,497.687714 
	C393.857819,492.334473 393.857819,487.302338 393.857819,481.968048 
	C314.785797,481.968048 236.142899,481.968048 156.500000,481.968079 
M172.357162,463.968689 
	C171.337082,464.489014 170.316986,465.009308 168.922165,465.720764 
	C227.850388,465.720764 286.172180,465.720764 345.404663,465.720764 
	C316.402832,451.202515 288.272858,437.042175 260.010315,423.151550 
	C258.153992,422.239197 254.943268,422.695831 252.937714,423.683563 
	C226.228485,436.837982 199.622040,450.201111 172.357162,463.968689 
M350.040100,395.341492 
	C348.393799,389.464203 346.747467,383.586914 345.033813,377.469147 
	C321.320465,389.339600 298.639923,400.693024 275.517273,412.267761 
	C306.590576,427.793030 337.029297,443.001251 368.434448,458.692322 
	C366.041473,450.668945 363.961395,443.973114 362.050568,437.229340 
	C358.162323,423.507202 354.365417,409.759186 350.040100,395.341492 
M174.615829,444.035065 
	C195.692688,433.571716 216.769531,423.108368 238.558472,412.291504 
	C215.119934,400.570038 192.339615,389.177734 168.888626,377.450043 
	C161.131226,404.581268 153.545380,431.112488 145.676208,458.634613 
	C155.715790,453.624420 164.857880,449.062103 174.615829,444.035065 
M283.500000,357.999878 
	C296.860931,357.999878 310.221893,357.999878 324.770813,357.999878 
	C321.791504,355.812744 319.904602,354.360229 317.950958,353.003845 
	C298.991730,339.841064 279.897949,326.865753 261.171295,313.380493 
	C257.912659,311.033905 256.248108,311.052429 253.267807,313.142700 
	C235.037079,325.929260 216.673920,338.526794 198.391205,351.239594 
	C195.581345,353.193420 192.959244,355.417297 189.626099,357.999878 
	C221.202789,357.999878 251.851395,357.999878 283.500000,357.999878 
M237.500000,41.999847 
	C261.926239,41.999847 286.352509,41.999847 310.713074,41.999847 
	C310.713074,33.023487 310.713074,24.618193 310.713074,16.284134 
	C274.691650,16.284134 238.957779,16.284134 203.286911,16.284134 
	C203.286911,24.976681 203.286911,33.382130 203.286911,41.999847 
	C214.548294,41.999847 225.524139,41.999847 237.500000,41.999847 
M245.369324,93.032921 
	C231.335480,83.789688 217.301620,74.546455 203.335312,65.347710 
	C203.335312,85.392586 203.335312,105.138130 203.335312,124.636917 
	C232.980988,124.636917 262.290619,124.636917 292.326233,124.636917 
	C276.428101,113.947166 261.201172,103.708710 245.369324,93.032921 
M247.500000,165.999863 
	C268.593597,165.999863 289.687195,165.999863 310.712341,165.999863 
	C310.712341,157.355240 310.712341,149.283005 310.712341,141.284790 
	C274.690277,141.284790 238.956421,141.284790 203.287628,141.284790 
	C203.287628,149.644928 203.287628,157.717178 203.287628,165.999863 
	C217.882690,165.999863 232.191345,165.999863 247.500000,165.999863 
M310.836731,240.643585 
	C310.836731,221.224518 310.836731,201.805466 310.836731,182.374908 
	C281.209290,182.374908 251.825912,182.374908 222.002808,182.374908 
	C251.673416,202.115082 280.864288,221.536087 310.836731,240.643585 
M238.501404,213.001190 
	C226.906342,205.278931 215.311264,197.556671 203.278015,189.542587 
	C203.278015,209.749985 203.278015,229.256500 203.278015,248.750717 
	C232.875153,248.750717 262.193726,248.750717 292.264343,248.750717 
	C274.092529,236.728928 256.559082,225.129486 238.501404,213.001190 
M299.498932,109.999069 
	C303.159302,112.393570 306.819641,114.788071 310.773102,117.374313 
	C310.773102,97.176636 310.773102,77.757263 310.773102,58.178032 
	C281.202118,58.178032 251.857986,58.178032 221.764252,58.178032 
	C228.050079,62.358498 233.734543,66.143181 239.423187,69.921555 
	C259.272827,83.105591 279.123932,96.287430 299.498932,109.999069 
M220.507919,315.995117 
	C227.913254,310.827667 235.318588,305.660217 242.790100,300.446594 
	C228.343582,290.350922 213.865189,280.232971 199.501511,270.195221 
	C192.346313,295.281616 185.284332,320.041229 177.984299,345.635406 
	C180.305115,344.108215 181.914261,343.102051 183.468979,342.017883 
	C195.646118,333.526276 207.812775,325.019653 220.507919,315.995117 
M279.395905,306.034058 
	C297.984619,319.115356 316.573334,332.196625 336.108093,345.943665 
	C328.707062,320.007843 321.627289,295.197906 314.506989,270.245850 
	C300.013794,280.394470 285.624298,290.470459 271.452820,300.393768 
	C273.795898,302.206451 276.228088,304.088074 279.395905,306.034058 
M228.615875,388.964630 
	C237.123764,393.178070 245.580750,397.501007 254.186340,401.504425 
	C255.741776,402.228088 258.230469,402.298157 259.742004,401.556488 
	C276.652832,393.259216 293.457458,384.745453 310.286774,376.282196 
	C311.427216,375.708679 312.536285,375.072693 313.916229,374.327301 
	C275.775452,374.327301 238.137695,374.327301 199.666260,374.327301 
	C209.644394,379.318329 218.822220,383.909088 228.615875,388.964630 
M272.970398,279.536255 
	C279.531433,274.822449 286.092499,270.108673 292.887024,265.227173 
	C268.790039,265.227173 245.142227,265.227173 220.920502,265.227173 
	C232.166824,273.104614 242.973434,280.563141 253.635162,288.223297 
	C256.166748,290.042206 258.043640,289.903778 260.434906,288.131683 
	C264.303406,285.264893 268.376892,282.674713 272.970398,279.536255 
M334.358673,21.042084 
	C331.961212,20.509808 329.563751,19.977533 327.198242,19.452347 
	C327.198242,27.053734 327.198242,34.330811 327.198242,41.801178 
	C353.103424,41.801178 378.811279,41.801178 404.519104,41.801178 
	C395.319519,38.676910 386.013733,35.951805 376.687286,33.299477 
	C362.808472,29.352526 348.915070,25.456978 334.358673,21.042084 
M390.024261,161.535751 
	C369.185242,155.543762 348.346222,149.551788 327.241760,143.483490 
	C327.241760,151.532166 327.241760,158.613129 327.241760,165.824585 
	C352.815979,165.824585 378.148407,165.824585 403.480804,165.824585 
	C403.522919,165.617142 403.565033,165.409683 403.607147,165.202240 
	C399.320984,164.123398 395.034790,163.044571 390.024261,161.535751 
M164.415649,149.997818 
	C146.431244,155.085907 128.446854,160.173996 110.462456,165.262085 
	C110.522736,165.408173 110.583015,165.554260 110.643303,165.700348 
	C136.031906,165.700348 161.420517,165.700348 186.765930,165.700348 
	C186.765930,158.303101 186.765930,151.207413 186.765930,143.347382 
	C179.316376,145.639236 172.285004,147.802460 164.415649,149.997818 
M435.897980,89.958733 
	C435.515045,89.469749 435.138855,88.560135 434.748260,88.553909 
	C426.958099,88.429810 418.917755,87.224869 411.462646,88.788124 
	C406.538452,89.820671 410.033325,96.242874 409.398926,100.174057 
	C409.180176,101.529526 410.790955,104.472092 411.660156,104.509636 
	C419.562683,104.851006 427.486053,104.709885 435.946075,104.709885 
	C435.946075,99.737419 435.946075,95.303825 435.897980,89.958733 
M90.502289,104.759476 
	C93.983360,104.758743 97.503510,105.057480 100.926414,104.610954 
	C102.309990,104.430473 104.681473,102.432205 104.547760,101.585991 
	C103.852440,97.185936 107.651726,90.106369 102.432846,88.837151 
	C94.823090,86.986473 86.428795,88.361748 78.373100,88.361748 
	C78.373100,94.125359 78.373100,99.181335 78.373100,104.759071 
	C82.296333,104.759071 85.906235,104.759071 90.502289,104.759476 
M104.748627,222.410309 
	C104.748627,219.338257 104.748627,216.266205 104.748627,213.292389 
	C95.378227,213.292389 86.861458,213.292389 78.379967,213.292389 
	C78.379967,218.638809 78.379967,223.537216 78.379967,228.567780 
	C87.229156,228.567780 95.746819,228.567780 104.748184,228.567780 
	C104.748184,226.604172 104.748184,224.976456 104.748627,222.410309 
M435.947235,223.371170 
	C435.947235,219.960861 435.947235,216.550537 435.947235,213.112122 
	C426.722076,213.112122 418.309418,213.112122 409.595886,213.112122 
	C409.595886,218.403336 409.595886,223.431244 409.595886,228.563431 
	C418.473602,228.563431 426.997711,228.563431 435.706421,228.563431 
	C435.799591,226.920868 435.873291,225.621567 435.947235,223.371170 
z"/>
<path fill="#42A5F5" opacity="1.000000" stroke="none" 
	d="
M157.000000,481.968079 
	C236.142899,481.968048 314.785797,481.968048 393.857819,481.968048 
	C393.857819,487.302338 393.857819,492.334473 393.857819,497.687714 
	C302.747681,497.687714 211.660736,497.687714 120.144958,497.687714 
	C120.144958,492.675903 120.144958,487.645386 120.144958,481.968079 
	C132.275696,481.968079 144.387848,481.968079 157.000000,481.968079 
z"/>
<path fill="#FFD550" opacity="1.000000" stroke="none" 
	d="
M435.922028,90.414482 
	C435.946075,95.303825 435.946075,99.737419 435.946075,104.709885 
	C427.486053,104.709885 419.562683,104.851006 411.660156,104.509636 
	C410.790955,104.472092 409.180176,101.529526 409.398926,100.174057 
	C410.033325,96.242874 406.538452,89.820671 411.462646,88.788124 
	C418.917755,87.224869 426.958099,88.429810 434.748260,88.553909 
	C435.138855,88.560135 435.515045,89.469749 435.922028,90.414482 
z"/>
<path fill="#FFD550" opacity="1.000000" stroke="none" 
	d="
M90.009216,104.759277 
	C85.906235,104.759071 82.296333,104.759071 78.373100,104.759071 
	C78.373100,99.181335 78.373100,94.125359 78.373100,88.361748 
	C86.428795,88.361748 94.823090,86.986473 102.432846,88.837151 
	C107.651726,90.106369 103.852440,97.185936 104.547760,101.585991 
	C104.681473,102.432205 102.309990,104.430473 100.926414,104.610954 
	C97.503510,105.057480 93.983360,104.758743 90.009216,104.759277 
z"/>
<path fill="#FFD44D" opacity="1.000000" stroke="none" 
	d="
M104.748405,222.879532 
	C104.748184,224.976456 104.748184,226.604172 104.748184,228.567780 
	C95.746819,228.567780 87.229156,228.567780 78.379967,228.567780 
	C78.379967,223.537216 78.379967,218.638809 78.379967,213.292389 
	C86.861458,213.292389 95.378227,213.292389 104.748627,213.292389 
	C104.748627,216.266205 104.748627,219.338257 104.748405,222.879532 
z"/>
<path fill="#FFD44D" opacity="1.000000" stroke="none" 
	d="
M435.947144,223.846710 
	C435.873291,225.621567 435.799591,226.920868 435.706421,228.563431 
	C426.997711,228.563431 418.473602,228.563431 409.595886,228.563431 
	C409.595886,223.431244 409.595886,218.403336 409.595886,213.112122 
	C418.309418,213.112122 426.722076,213.112122 435.947235,213.112122 
	C435.947235,216.550537 435.947235,219.960861 435.947144,223.846710 
z"/>
</svg>