<svg version="1.1" id="Layer_1" xmlns="http://www.w3.org/2000/svg" xmlns:xlink="http://www.w3.org/1999/xlink" x="0px" y="0px"
	 width="100%" viewBox="0 0 512 512" enable-background="new 0 0 512 512" xml:space="preserve">

<path fill="#C5D2DC" opacity="1.000000" stroke="none" 
	d="
M410.984802,400.822357 
	C409.322540,400.881500 407.660278,400.992218 405.998016,400.992340 
	C298.675964,401.000519 191.353897,400.999756 84.031845,400.999756 
	C82.402580,400.999756 80.773308,400.999756 78.704163,400.999756 
	C78.704163,396.801636 78.536049,393.006989 78.743134,389.232941 
	C79.062523,383.412018 77.459045,379.013458 71.105377,377.764587 
	C71.105377,371.247345 71.105377,364.928314 71.105377,358.650513 
	C77.708092,356.083527 78.701347,354.574005 78.701637,347.013031 
	C78.705711,242.190720 78.688858,137.368393 78.774635,32.546143 
	C78.777420,29.142464 78.814629,25.006943 80.630836,22.527424 
	C82.757828,19.623625 86.806587,18.081320 90.131653,16.136351 
	C90.887070,15.694477 92.094444,16.003460 93.093796,16.003525 
	C197.415878,16.010279 301.737946,16.020548 406.588837,16.458992 
	C408.408508,23.149311 410.814056,29.409225 410.825378,35.673473 
	C411.045746,157.389465 410.986603,279.105957 410.984802,400.822357 
M297.780182,233.685349 
	C298.633240,238.487335 301.754883,240.225571 306.342438,240.208160 
	C318.174133,240.163269 330.006256,240.231750 341.837952,240.185959 
	C356.744995,240.128281 365.499390,231.545624 365.525330,216.649231 
	C365.600525,173.488037 365.601837,130.326538 365.525177,87.165344 
	C365.499146,72.507774 356.840179,63.709713 342.275543,63.687656 
	C285.449402,63.601604 228.622925,63.603901 171.796738,63.685520 
	C157.186462,63.706505 148.500687,72.466797 148.474854,87.086494 
	C148.398575,130.247681 148.405502,173.409164 148.471222,216.570389 
	C148.493988,231.514038 157.191910,240.158981 172.073486,240.180939 
	C203.902832,240.227936 235.732269,240.204010 267.561676,240.188705 
	C274.485138,240.185364 275.893860,239.115845 278.725159,232.814941 
	C284.996216,232.854965 291.267273,232.895004 297.780182,233.685349 
M180.762817,257.646393 
	C178.767761,257.706635 176.738052,257.554657 174.785217,257.873474 
	C171.250015,258.450623 169.204956,260.700195 168.868729,264.277405 
	C168.514801,268.042725 170.095398,270.855194 173.731705,272.017242 
	C175.584396,272.609344 177.665176,272.661591 179.643036,272.662842 
	C231.264923,272.694916 282.886810,272.693420 334.508728,272.666504 
	C336.323914,272.665558 338.211670,272.604584 339.939026,272.120239 
	C343.625305,271.086456 345.367310,268.389679 345.151917,264.617554 
	C344.935059,260.820404 342.833405,258.438629 339.051819,257.843964 
	C337.258759,257.562012 335.399780,257.653381 333.570679,257.653076 
	C282.947906,257.644745 232.325150,257.646423 180.762817,257.646393 
z"/>
<path fill="#7A8C98" opacity="1.000000" stroke="none" 
	d="
M406.933899,497.781250 
	C404.939087,497.853485 402.944305,497.988739 400.949493,497.988922 
	C299.147186,497.999237 197.344879,497.998535 95.542572,497.997314 
	C82.824463,497.997162 78.733391,493.958374 78.726845,481.364502 
	C78.716545,461.537201 78.723953,441.709930 78.723862,421.882629 
	C78.723854,420.097961 78.723862,418.313263 78.723862,416.276550 
	C80.362823,416.161316 81.489243,416.012695 82.615639,416.012787 
	C191.748596,416.021362 300.881531,416.041260 410.474243,416.587708 
	C410.937988,436.584229 410.858643,456.054016 410.987213,475.522461 
	C411.038147,483.239166 410.562805,490.774780 406.933899,497.781250 
z"/>
<path fill="#B6C4CF" opacity="1.000000" stroke="none" 
	d="
M411.448608,400.900696 
	C410.986603,279.105957 411.045746,157.389465 410.825378,35.673473 
	C410.814056,29.409225 408.408508,23.149311 407.050995,16.535358 
	C411.811005,16.123003 416.638550,15.973975 421.464142,16.021759 
	C430.108704,16.107359 435.184814,20.982664 435.248962,29.613562 
	C435.376526,46.772549 435.362427,63.933571 435.252655,81.092766 
	C435.217773,86.541626 436.731476,90.586906 442.816650,91.596756 
	C442.816650,98.072571 442.816650,104.377602 442.816650,111.144142 
	C435.856659,112.236526 435.232269,117.375404 435.237671,123.373192 
	C435.319000,213.671021 435.293976,303.968933 435.294006,394.266815 
	C435.294006,396.262665 435.294037,398.258514 435.294037,400.979065 
	C427.407806,400.979065 419.660095,400.979065 411.448608,400.900696 
z"/>
<path fill="#596C76" opacity="1.000000" stroke="none" 
	d="
M407.400482,497.862427 
	C410.562805,490.774780 411.038147,483.239166 410.987213,475.522461 
	C410.858643,456.054016 410.937988,436.584229 410.933716,416.660034 
	C418.731842,416.205109 426.530243,416.205109 434.879059,416.205109 
	C435.002136,417.883209 435.217316,419.463959 435.218994,421.044922 
	C435.240936,441.683899 435.259247,462.322968 435.220795,482.961884 
	C435.201538,493.294952 430.559937,497.943298 420.349304,497.991089 
	C416.188721,498.010590 412.027832,497.961487 407.400482,497.862427 
z"/>
<path fill="#518ED6" opacity="1.000000" stroke="none" 
	d="
M297.538330,232.935028 
	C291.267273,232.895004 284.996216,232.854965 278.160828,232.448837 
	C276.532471,226.571198 272.751648,225.129089 267.689697,225.138412 
	C236.554031,225.195755 205.418213,225.168503 174.282440,225.165131 
	C164.843643,225.164108 163.523071,223.872345 163.521759,214.569458 
	C163.515823,172.777588 163.515625,130.985718 163.521698,89.193848 
	C163.523026,80.095871 164.901276,78.700516 173.912628,78.699295 
	C223.197067,78.692612 272.481506,78.693283 321.765961,78.708763 
	C323.421967,78.709290 325.077911,78.894928 326.808685,79.418427 
	C327.211273,85.232025 327.539062,90.621460 327.492004,95.943413 
	C324.063660,95.238007 321.011841,94.054024 317.956482,94.044731 
	C277.305969,93.921135 236.654968,93.945686 196.004105,93.973198 
	C185.149582,93.980545 178.920029,100.165131 178.877884,110.939766 
	C178.825745,124.267723 178.855194,137.596024 178.866318,150.924179 
	C178.877045,163.777023 184.600418,169.572220 197.399063,169.579056 
	C237.216934,169.600342 277.034912,169.629669 316.852448,169.510376 
	C320.269806,169.500153 323.683960,168.413910 327.317932,168.189148 
	C327.267151,187.341553 326.998077,206.132324 326.284607,225.010498 
	C319.577789,225.121002 313.314941,225.104996 307.053101,225.178329 
	C300.997223,225.249237 298.935852,226.972977 297.538330,232.935028 
M208.944870,202.484833 
	C208.505692,201.084869 208.374741,199.466995 207.568527,198.326477 
	C205.304718,195.123993 202.129517,194.017914 198.451813,195.689835 
	C194.827225,197.337601 193.263611,200.401001 194.234741,204.228867 
	C195.195389,208.015442 197.969955,210.148087 201.935532,209.867737 
	C205.879013,209.588943 208.143936,207.114349 208.944870,202.484833 
M235.465179,195.657211 
	C230.034927,199.590942 229.274399,205.834229 234.392761,208.405243 
	C236.690903,209.559616 240.972275,209.477081 242.837830,208.017838 
	C244.698700,206.562256 245.773102,202.433914 245.210739,199.920776 
	C244.259720,195.670959 240.497711,194.321671 235.465179,195.657211 
M276.278870,195.018616 
	C272.034027,194.836151 268.715729,196.892227 268.437805,200.895493 
	C268.258423,203.479431 269.951080,206.967102 271.958923,208.750031 
	C275.064758,211.507996 279.987091,209.749649 282.046783,205.992935 
	C284.418640,201.666809 282.629333,197.759521 276.278870,195.018616 
M305.083191,201.722000 
	C305.396606,203.153000 305.391327,204.765823 306.084167,205.980347 
	C308.030670,209.392212 311.108398,210.823257 314.903046,209.472870 
	C318.857391,208.065674 320.703918,204.945007 319.801727,200.864319 
	C318.965546,197.082428 316.277954,194.899811 312.251617,195.038544 
	C308.461243,195.169159 306.263184,197.445145 305.083191,201.722000 
z"/>
<path fill="#040506" opacity="1.000000" stroke="none" 
	d="
M297.659241,233.310181 
	C298.935852,226.972977 300.997223,225.249237 307.053101,225.178329 
	C313.314941,225.104996 319.577789,225.121002 326.774445,225.104126 
	C331.702820,225.130814 335.696960,225.167847 339.691101,225.168427 
	C349.188446,225.169830 350.584259,223.765717 350.586060,214.112915 
	C350.593842,172.669510 350.590576,131.226105 350.585083,89.782700 
	C350.584869,88.285896 350.624298,86.777710 350.463684,85.294502 
	C350.027435,81.265732 347.877106,78.806557 343.683197,78.778252 
	C338.034180,78.740128 332.383728,78.912346 326.733887,78.994278 
	C325.077911,78.894928 323.421967,78.709290 321.765961,78.708763 
	C272.481506,78.693283 223.197067,78.692612 173.912628,78.699295 
	C164.901276,78.700516 163.523026,80.095871 163.521698,89.193848 
	C163.515625,130.985718 163.515823,172.777588 163.521759,214.569458 
	C163.523071,223.872345 164.843643,225.164108 174.282440,225.165131 
	C205.418213,225.168503 236.554031,225.195755 267.689697,225.138412 
	C272.751648,225.129089 276.532471,226.571198 277.679474,232.409958 
	C275.893860,239.115845 274.485138,240.185364 267.561676,240.188705 
	C235.732269,240.204010 203.902832,240.227936 172.073486,240.180939 
	C157.191910,240.158981 148.493988,231.514038 148.471222,216.570389 
	C148.405502,173.409164 148.398575,130.247681 148.474854,87.086494 
	C148.500687,72.466797 157.186462,63.706505 171.796738,63.685520 
	C228.622925,63.603901 285.449402,63.601604 342.275543,63.687656 
	C356.840179,63.709713 365.499146,72.507774 365.525177,87.165344 
	C365.601837,130.326538 365.600525,173.488037 365.525330,216.649231 
	C365.499390,231.545624 356.744995,240.128281 341.837952,240.185959 
	C330.006256,240.231750 318.174133,240.163269 306.342438,240.208160 
	C301.754883,240.225571 298.633240,238.487335 297.659241,233.310181 
z"/>
<path fill="#050606" opacity="1.000000" stroke="none" 
	d="
M181.232605,257.646423 
	C232.325150,257.646423 282.947906,257.644745 333.570679,257.653076 
	C335.399780,257.653381 337.258759,257.562012 339.051819,257.843964 
	C342.833405,258.438629 344.935059,260.820404 345.151917,264.617554 
	C345.367310,268.389679 343.625305,271.086456 339.939026,272.120239 
	C338.211670,272.604584 336.323914,272.665558 334.508728,272.666504 
	C282.886810,272.693420 231.264923,272.694916 179.643036,272.662842 
	C177.665176,272.661591 175.584396,272.609344 173.731705,272.017242 
	C170.095398,270.855194 168.514801,268.042725 168.868729,264.277405 
	C169.204956,260.700195 171.250015,258.450623 174.785217,257.873474 
	C176.738052,257.554657 178.767761,257.706635 181.232605,257.646423 
z"/>
<path fill="#020303" opacity="1.000000" stroke="none" 
	d="
M327.099609,167.827530 
	C323.683960,168.413910 320.269806,169.500153 316.852448,169.510376 
	C277.034912,169.629669 237.216934,169.600342 197.399063,169.579056 
	C184.600418,169.572220 178.877045,163.777023 178.866318,150.924179 
	C178.855194,137.596024 178.825745,124.267723 178.877884,110.939766 
	C178.920029,100.165131 185.149582,93.980545 196.004105,93.973198 
	C236.654968,93.945686 277.305969,93.921135 317.956482,94.044731 
	C321.011841,94.054024 324.063660,95.238007 327.692627,96.226654 
	C333.208221,100.234398 335.256653,105.114006 335.175568,111.266350 
	C334.999969,124.592239 334.910797,137.926773 335.207825,151.248352 
	C335.367035,158.388321 333.005280,163.865662 327.099609,167.827530 
M193.867767,123.504555 
	C193.867767,133.741562 193.867767,143.978577 193.867767,154.219604 
	C236.364822,154.219604 278.077118,154.219604 319.752960,154.219604 
	C319.752960,138.975266 319.752960,124.090370 319.752960,109.282997 
	C277.650818,109.282997 235.932510,109.282997 193.867767,109.282997 
	C193.867767,113.898331 193.867767,118.203003 193.867767,123.504555 
z"/>
<path fill="#0570C8" opacity="1.000000" stroke="none" 
	d="
M327.317932,168.189148 
	C333.005280,163.865662 335.367035,158.388321 335.207825,151.248352 
	C334.910797,137.926773 334.999969,124.592239 335.175568,111.266350 
	C335.256653,105.114006 333.208221,100.234398 328.067505,96.294144 
	C327.539062,90.621460 327.211273,85.232025 326.808685,79.418434 
	C332.383728,78.912346 338.034180,78.740128 343.683197,78.778252 
	C347.877106,78.806557 350.027435,81.265732 350.463684,85.294502 
	C350.624298,86.777710 350.584869,88.285896 350.585083,89.782700 
	C350.590576,131.226105 350.593842,172.669510 350.586060,214.112915 
	C350.584259,223.765717 349.188446,225.169830 339.691101,225.168427 
	C335.696960,225.167847 331.702820,225.130814 327.218842,225.016724 
	C326.998077,206.132324 327.267151,187.341553 327.317932,168.189148 
z"/>
<path fill="#020407" opacity="1.000000" stroke="none" 
	d="
M208.924118,202.872833 
	C208.143936,207.114349 205.879013,209.588943 201.935532,209.867737 
	C197.969955,210.148087 195.195389,208.015442 194.234741,204.228867 
	C193.263611,200.401001 194.827225,197.337601 198.451813,195.689835 
	C202.129517,194.017914 205.304718,195.123993 207.568527,198.326477 
	C208.374741,199.466995 208.505692,201.084869 208.924118,202.872833 
z"/>
<path fill="#020406" opacity="1.000000" stroke="none" 
	d="
M235.818726,195.486206 
	C240.497711,194.321671 244.259720,195.670959 245.210739,199.920776 
	C245.773102,202.433914 244.698700,206.562256 242.837830,208.017838 
	C240.972275,209.477081 236.690903,209.559616 234.392761,208.405243 
	C229.274399,205.834229 230.034927,199.590942 235.818726,195.486206 
z"/>
<path fill="#020406" opacity="1.000000" stroke="none" 
	d="
M276.670807,195.063950 
	C282.629333,197.759521 284.418640,201.666809 282.046783,205.992935 
	C279.987091,209.749649 275.064758,211.507996 271.958923,208.750031 
	C269.951080,206.967102 268.258423,203.479431 268.437805,200.895493 
	C268.715729,196.892227 272.034027,194.836151 276.670807,195.063950 
z"/>
<path fill="#020406" opacity="1.000000" stroke="none" 
	d="
M305.138000,201.335358 
	C306.263184,197.445145 308.461243,195.169159 312.251617,195.038544 
	C316.277954,194.899811 318.965546,197.082428 319.801727,200.864319 
	C320.703918,204.945007 318.857391,208.065674 314.903046,209.472870 
	C311.108398,210.823257 308.030670,209.392212 306.084167,205.980347 
	C305.391327,204.765823 305.396606,203.153000 305.138000,201.335358 
z"/>
<path fill="#A0E42E" opacity="1.000000" stroke="none" 
	d="
M193.867767,123.006119 
	C193.867767,118.203003 193.867767,113.898331 193.867767,109.282997 
	C235.932510,109.282997 277.650818,109.282997 319.752960,109.282997 
	C319.752960,124.090370 319.752960,138.975266 319.752960,154.219604 
	C278.077118,154.219604 236.364822,154.219604 193.867767,154.219604 
	C193.867767,143.978577 193.867767,133.741562 193.867767,123.006119 
z"/>
</svg>