<svg version="1.1" id="Layer_1" xmlns="http://www.w3.org/2000/svg" xmlns:xlink="http://www.w3.org/1999/xlink" x="0px" y="0px"
	 width="100%" viewBox="0 0 512 512" enable-background="new 0 0 512 512" xml:space="preserve">

<path fill="#1565C0" opacity="1.000000" stroke="none"
	d="
M82.000000,304.000000 
	C82.000000,275.745361 82.000000,247.990723 82.000000,219.753372 
	C75.709023,223.843674 70.233246,228.089294 64.179932,231.217224 
	C41.839249,242.761368 16.670355,225.214859 16.862673,202.275864 
	C16.968060,189.705765 22.105186,180.446655 32.057198,173.449783 
	C54.242966,157.851837 76.480522,142.327591 98.676567,126.744232 
	C126.827942,106.979759 154.988663,87.228355 183.087692,67.389664 
	C199.591003,55.737854 215.768906,43.612667 232.484543,32.277531 
	C248.951050,21.111332 265.824371,21.311975 282.433960,32.956135 
	C306.099213,49.546700 329.707336,66.218811 353.356415,82.832497 
	C354.213654,83.434700 355.246246,83.787292 357.000000,84.652168 
	C357.000000,72.445473 357.309784,61.030693 356.914001,49.640434 
	C356.507385,37.938812 362.166534,30.578939 372.283569,25.982134 
	C374.134338,25.141209 376.245880,24.357250 378.222015,24.392372 
	C392.084961,24.638754 406.450165,20.926659 419.586304,27.450686 
	C427.293701,31.278534 432.072876,38.061764 432.038086,47.471169 
	C431.932739,75.965828 432.142670,104.462601 431.850830,132.954666 
	C431.805511,137.383163 433.574219,139.755814 436.724792,141.984360 
	C452.548553,153.177246 468.256500,164.536224 484.179077,175.586227 
	C498.287384,185.377167 500.595215,206.588470 491.843658,219.746429 
	C480.547058,236.730972 457.493896,238.804276 442.186737,226.714935 
	C439.174347,224.335785 435.978088,222.189514 432.367126,219.574020 
	C432.367126,304.273438 432.367126,388.417389 432.367126,473.000000 
	C440.296112,473.000000 448.244843,472.997284 456.193573,473.000977 
	C461.553436,473.003448 464.748077,475.571045 465.015656,479.916443 
	C465.372833,485.717651 463.890991,489.040955 456.605408,489.985138 
	C455.785950,490.091309 454.940887,490.000000 454.107697,490.000000 
	C322.630524,490.000031 191.153351,490.000946 59.676182,489.997620 
	C51.497623,489.997437 48.444019,487.156799 49.054825,479.705780 
	C49.386280,475.662506 51.762951,473.081573 56.023258,473.030243 
	C64.496399,472.928162 72.971626,473.000031 82.000000,473.000031 
	C82.000000,416.676270 82.000000,360.588135 82.000000,304.000000 
M354.612518,164.966904 
	C322.061890,141.923004 289.511261,118.879120 256.951202,95.828560 
	C234.392776,111.895584 212.089478,127.926872 189.631744,143.738815 
	C162.318420,162.969467 134.897034,182.046997 107.470245,201.115738 
	C101.626762,205.178482 98.649963,209.491409 98.698227,217.646347 
	C99.191330,300.957764 99.000000,384.273224 99.000000,467.587555 
	C99.000000,469.343567 99.000000,471.099548 99.000000,472.701538 
	C204.694199,472.701538 309.749207,472.701538 415.000000,472.701538 
	C415.000000,470.590271 415.000000,468.776093 415.000000,466.961945 
	C415.000000,400.143860 415.000000,333.325745 415.000000,266.507660 
	C415.000000,248.011887 415.036621,229.515900 414.936523,211.020660 
	C414.927704,209.388062 414.551331,207.035187 413.457581,206.242859 
	C403.004730,198.670868 392.328583,191.408356 381.780823,183.965851 
	C372.924988,177.717163 364.154755,171.347092 354.612518,164.966904 
M80.616119,199.033249 
	C102.928795,183.338318 125.229637,167.626511 147.558640,151.954849 
	C160.769394,142.682846 174.059906,133.524246 187.251968,124.225845 
	C208.895782,108.970238 230.393112,93.502609 252.248093,78.557060 
	C254.481277,77.029877 259.579712,77.168785 261.907104,78.710541 
	C277.641907,89.133904 293.036926,100.074829 308.448639,110.980110 
	C329.418091,125.817993 350.284393,140.801651 371.233154,155.668869 
	C385.848846,166.041550 400.493591,176.374191 415.190186,186.631836 
	C429.075439,196.323212 443.028351,205.918091 456.986664,215.504181 
	C462.381134,219.208923 469.488190,218.428345 473.955048,214.505554 
	C483.110229,206.465393 482.267426,194.819794 471.877106,187.427246 
	C454.646973,175.168304 437.267548,163.119095 419.940002,150.997314 
	C400.629333,137.488174 381.258911,124.063988 361.999664,110.482025 
	C331.115234,88.701706 300.362091,66.734688 269.412445,45.047771 
	C261.991730,39.847927 252.109116,39.871376 244.527161,45.093235 
	C230.560593,54.712315 216.854431,64.708786 203.002487,74.495216 
	C176.886398,92.946297 150.777878,111.408432 124.602921,129.775787 
	C97.260612,148.962265 69.797462,167.977066 42.525612,187.262741 
	C39.548161,189.368301 36.655560,192.387299 35.166882,195.642624 
	C31.876842,202.837067 34.165779,210.441055 40.796249,215.106918 
	C45.534836,218.441452 51.546230,219.622894 58.709961,214.679016 
	C65.891190,209.723083 72.923973,204.552063 80.616119,199.033249 
M413.022247,43.538616 
	C412.379395,43.036003 411.747986,42.111668 411.091980,42.093845 
	C400.740234,41.812637 390.377319,41.337357 380.035004,41.604801 
	C375.716125,41.716480 373.951111,45.216732 373.972137,49.566628 
	C374.044586,64.563393 373.910614,79.562012 374.128235,94.555969 
	C374.151855,96.185936 375.584167,98.274399 376.982666,99.326759 
	C385.246552,105.545265 393.652374,111.578621 402.097290,117.551491 
	C406.051208,120.348000 410.199677,122.869476 414.999420,125.997528 
	C414.999420,99.193352 415.020477,73.708237 414.941376,48.223446 
	C414.937134,46.852585 414.092163,45.484325 413.022247,43.538616 
z"/>


<path fill="#1565C0" opacity="1.000000" stroke="none"
	d="
M307.277039,257.370361 
	C305.511322,267.855652 303.981293,277.958527 302.459534,288.062622 
	C302.241394,289.510895 302.063263,290.965179 301.787598,293.000000 
	C306.516144,293.000000 310.963013,292.972656 315.409393,293.005615 
	C325.033081,293.076935 329.168640,297.094269 330.972260,302.222900 
	C333.508728,309.435364 331.659302,314.062622 324.855286,319.740143 
	C320.047974,323.751526 315.575928,328.170166 311.022583,332.479187 
	C303.687103,339.421143 296.464844,346.483398 289.093018,353.386139 
	C274.634277,366.924957 260.122498,380.407318 245.591660,393.868713 
	C242.590286,396.649231 239.624756,399.552856 236.260696,401.837158 
	C231.457382,405.098785 225.236633,404.561371 220.804932,401.318146 
	C215.340042,397.318787 214.198441,391.825348 215.169556,385.604645 
	C217.068451,373.440826 219.004211,361.282288 221.020203,349.137390 
	C222.158630,342.279266 223.514862,335.457550 224.706726,328.607880 
	C224.948730,327.217041 224.893707,325.774536 224.996170,324.000000 
	C214.824142,324.000000 205.021713,323.924622 195.220993,324.021210 
	C185.424759,324.117737 180.705048,315.422119 182.114899,307.829987 
	C186.210571,285.774750 190.638382,263.780609 195.019211,241.779099 
	C197.284637,230.401657 199.481796,219.000763 202.181320,207.723358 
	C203.778275,201.052002 212.646347,194.730270 219.864899,194.845810 
	C244.849808,195.245758 269.852295,195.352661 294.833099,194.840988 
	C306.155426,194.609085 315.710419,206.416092 313.957520,217.667694 
	C311.913086,230.790619 309.671417,243.882812 307.277039,257.370361 
M236.963684,361.223267 
	C235.860916,366.967957 234.758163,372.712646 233.655396,378.457336 
	C234.182709,378.796051 234.710007,379.134796 235.237305,379.473511 
	C260.078339,356.474060 284.919373,333.474609 310.273651,310.000000 
	C305.590607,310.000000 301.746368,309.725037 297.954590,310.054260 
	C288.550690,310.870850 282.732849,301.753387 284.045990,293.067139 
	C285.279785,284.905701 286.639069,276.762543 288.013458,268.623169 
	C290.975250,251.082672 294.000214,233.552811 296.950775,216.010422 
	C297.383026,213.440384 296.493225,211.958542 293.491211,211.966248 
	C269.513245,212.027710 245.534897,211.965363 221.557602,212.105255 
	C220.370071,212.112183 218.372101,213.457016 218.136154,214.493927 
	C215.919266,224.237015 213.942398,234.036636 212.016296,243.843521 
	C209.031387,259.041595 206.119766,274.254181 203.220108,289.468811 
	C202.063873,295.535614 201.022141,301.624298 199.874847,308.000000 
	C210.572556,308.000000 220.551956,307.894012 230.527176,308.052002 
	C234.535599,308.115479 237.584305,309.806763 240.185455,313.370636 
	C244.463989,319.232758 242.393738,325.057709 241.486237,331.017700 
	C239.998428,340.789215 238.494507,350.558258 236.963684,361.223267 
z"/>

</svg>