<svg version="1.1" id="Layer_1" xmlns="http://www.w3.org/2000/svg" xmlns:xlink="http://www.w3.org/1999/xlink" x="0px" y="0px"
	 width="100%" viewBox="0 0 512 512" enable-background="new 0 0 512 512" xml:space="preserve">
<path fill="#1565C0" opacity="1.000000" stroke="none"
	d="
M133.725601,39.765331 
	C144.283798,30.629581 156.081467,24.876186 169.591782,23.062563 
	C175.136627,22.318222 180.782959,22.047712 186.383514,22.043163 
	C264.207794,21.979959 342.035431,21.591238 419.854736,22.218163 
	C447.810394,22.443378 468.969269,36.424759 482.824890,60.697704 
	C489.537201,72.456657 492.118561,85.343803 492.096130,99.027267 
	C491.921753,205.514679 491.999298,312.002472 492.000610,418.490173 
	C492.000793,435.033081 486.632874,449.835083 476.613129,462.767578 
	C461.457947,482.328522 441.217560,491.986908 416.456360,491.992249 
	C328.299896,492.011322 240.143417,491.999725 151.986938,491.999725 
	C143.611710,491.999725 135.235779,492.070557 126.861397,491.986542 
	C103.087006,491.747986 81.828674,484.254761 63.116047,469.603790 
	C41.328884,452.545654 27.535639,430.326843 23.294424,403.104584 
	C18.481560,372.213135 24.882107,343.590240 44.787445,318.707245 
	C60.164539,299.484802 79.443802,286.310211 103.701401,280.992371 
	C107.447136,280.171204 107.008949,277.594849 107.008408,274.948853 
	C106.996803,218.288742 107.107414,161.628281 106.921783,104.968773 
	C106.876991,91.296539 108.195023,77.992538 114.050690,65.525459 
	C118.673683,55.682796 124.462868,46.591103 133.725601,39.765331 
M235.121841,397.732025 
	C233.463852,416.451324 226.371201,433.109253 215.289124,448.999451 
	C217.620529,448.999451 219.377426,448.999451 221.134323,448.999481 
	C279.613831,448.999664 338.093384,449.039215 396.572754,448.955292 
	C404.839935,448.943451 413.147552,448.729431 421.361267,447.881042 
	C429.425934,447.048004 435.872375,443.017853 441.246094,436.649078 
	C447.569153,429.155029 448.884155,420.322937 448.898926,411.340057 
	C449.060272,313.208038 449.023590,215.075684 448.956421,116.943481 
	C448.950867,108.841362 448.725952,100.698174 447.883179,92.649437 
	C447.038788,84.585533 443.017975,78.144585 436.659912,72.757690 
	C429.157562,66.401291 420.327118,65.122772 411.316925,65.096642 
	C348.339539,64.913963 285.361267,64.939064 222.383530,65.045486 
	C207.783722,65.070160 193.178055,65.489059 178.587570,66.050858 
	C165.259308,66.564064 151.091446,80.972404 151.061371,94.355667 
	C150.925095,155.000763 151.017883,215.646332 150.950180,276.291656 
	C150.947037,279.113251 151.883392,280.392303 154.636078,281.026184 
	C178.973892,286.630188 198.460754,299.884033 213.776657,319.341888 
	C231.723450,342.142090 238.137039,368.298279 235.121841,397.732025 
M150.201675,444.910400 
	C157.421799,440.486786 165.500122,437.016632 171.688385,431.446625 
	C185.770111,418.771790 192.680908,402.678986 192.152390,383.260132 
	C191.708710,366.958710 185.983490,353.142761 174.963364,341.605957 
	C161.389557,327.395752 144.739685,320.711426 124.770233,321.861725 
	C110.900711,322.660645 98.877052,327.675690 88.492035,336.202179 
	C64.545609,355.863068 58.660034,391.326294 74.821266,417.792572 
	C90.424370,443.344818 121.968338,454.518097 150.201675,444.910400 
z"/>
<path fill="#1565C0" opacity="1.000000" stroke="none"
	d="
M204.279770,107.000381 
	C268.063019,107.000000 331.377625,107.113136 394.691101,106.897652 
	C406.365051,106.857933 417.039612,117.411415 417.348694,128.132172 
	C417.756531,142.276321 405.098541,151.109772 394.869141,151.083145 
	C331.388763,150.917862 267.907715,151.008698 204.426895,150.989838 
	C195.057236,150.987061 186.386185,145.410736 183.218170,137.508606 
	C179.929123,129.304550 182.055176,119.022438 188.580704,112.988754 
	C192.818512,109.070358 198.083893,107.345718 204.279770,107.000381 
z"/>
<path fill="#1565C0" opacity="1.000000" stroke="none"
	d="
M388.983398,193.000000
	C395.991211,193.223938 402.535217,192.108017 408.480988,196.654755
	C415.513855,202.032806 419.189819,211.722305 416.611176,220.855545
	C413.995178,230.121048 405.225494,235.894119 397.025482,235.958160
	C379.693604,236.093521 362.359924,235.999649 345.026978,235.999680
	C297.694702,235.999802 250.362442,236.003754 203.030167,235.996780
	C192.900497,235.995285 183.434372,228.266373 182.079102,218.553284
	C180.581284,207.818558 185.926239,196.598969 196.688431,193.783127
	C198.562576,193.292755 200.553650,193.032715 202.490936,193.031525
	C264.489532,192.993240 326.488129,193.000015 388.983398,193.000000
z"/>
<path fill="#1565C0" opacity="1.000000" stroke="none"
	d="
M351.000000,321.000000
	C319.035767,320.999969 287.566071,320.655823 256.109863,321.158142
	C242.259918,321.379333 230.279022,305.551117 236.918015,291.146698
	C240.991745,282.308075 247.519104,277.934937 257.360840,277.956116
	C303.474854,278.055359 349.589233,277.997101 395.703461,278.002930
	C406.010010,278.004242 415.865845,285.642914 416.941498,294.709961
	C418.545532,308.230652 413.577332,316.708771 402.255219,320.251343
	C400.572876,320.777740 398.722137,320.962219 396.948090,320.968597
	C381.798889,321.023071 366.649414,320.999939 351.000000,321.000000
z"/>
<path fill="#1565C0" opacity="1.000000" stroke="none"
	d="
M385.990143,362.999786
	C393.835632,363.042725 401.235535,362.239075 407.858459,366.903748
	C415.562714,372.330017 419.434174,382.341278 416.812286,391.383179
	C414.369537,399.807373 405.049042,406.967224 396.129669,406.978241
	C356.670135,407.026917 317.210419,407.050232 277.751007,406.965454
	C267.060822,406.942474 257.019836,396.766418 256.656860,385.809937
	C256.237885,373.162537 267.338287,362.710663 280.102020,362.858917
	C315.227936,363.266876 350.361755,362.999786 385.990143,362.999786
z"/>
<path fill="#1565C0" opacity="1.000000" stroke="none"
	d="
M79.673141,371.847076
	C91.592545,359.830353 101.428764,360.616241 118.825081,374.872864
	C127.477036,366.154358 136.127151,357.389343 144.833313,348.680389
	C151.423889,342.087677 160.887894,340.109009 169.242584,343.728027
	C177.909424,347.482178 182.387238,354.674286 182.770050,363.671692
	C183.010025,369.312195 180.724991,374.848755 176.376587,379.164825
	C162.552490,392.886200 148.500671,406.398529 135.152206,420.571228
	C126.702049,429.543213 113.459747,431.126923 103.285225,422.418854
	C95.126717,415.436279 87.991997,407.210999 80.734795,399.235229
	C73.865425,391.685760 74.096992,383.107941 78.307716,374.308350
	C78.661652,373.568695 79.041031,372.841156 79.673141,371.847076
z"/>
</svg>