<svg version="1.1" id="Layer_1" xmlns="http://www.w3.org/2000/svg" xmlns:xlink="http://www.w3.org/1999/xlink" x="0px" y="0px"
	 width="100%" viewBox="0 0 512 512" enable-background="new 0 0 512 512" xml:space="preserve">

<path fill="#1565C0" opacity="1.000000" stroke="none"
	d="
M129.335480,447.735840 
	C114.495628,437.526306 100.868477,426.415619 88.972923,413.372467 
	C76.989288,400.232727 66.539375,385.961578 57.693207,370.443512 
	C47.360386,352.317596 39.481075,333.246887 34.658722,313.030060 
	C32.028393,302.002899 30.280012,290.687500 29.160109,279.400269 
	C28.084494,268.559448 27.531406,257.537506 28.204639,246.685471 
	C29.030775,233.368729 30.605892,219.992706 33.230289,206.917923 
	C37.222179,187.030273 44.414440,168.114258 53.993984,150.187851 
	C62.448101,134.367462 72.567932,119.735840 84.265526,106.058250 
	C99.683304,88.030777 117.757912,73.235420 137.791885,60.917229 
	C155.886398,49.791569 175.374344,41.585392 195.964081,35.915508 
	C220.602783,29.130650 245.681854,26.699820 271.030426,28.146074 
	C295.282410,29.529760 318.823425,34.730263 341.535583,43.771530 
	C362.187775,51.992771 381.277344,62.864922 398.731354,76.435631 
	C420.553406,93.402504 438.557556,113.953537 452.926392,137.609375 
	C462.877319,153.991898 471.089478,171.241165 476.147125,189.731766 
	C479.471252,201.884674 482.259735,214.309677 483.780151,226.796432 
	C485.431183,240.355804 486.233856,254.160461 485.740692,267.797943 
	C485.271240,280.781067 483.301422,293.811829 480.829620,306.597107 
	C477.007874,326.365082 469.873291,345.123352 460.487549,362.935944 
	C451.973450,379.094238 441.670319,394.015564 429.737061,407.939545 
	C413.671021,426.685730 394.818787,441.992096 373.764679,454.501770 
	C356.082794,465.007782 337.275360,473.118073 317.151520,478.165649 
	C304.018585,481.459717 290.931091,484.492615 277.364929,484.996002 
	C267.443390,485.364166 257.511688,486.090271 247.598312,485.908081 
	C229.431686,485.574127 211.627060,482.443054 194.131577,477.575745 
	C171.049469,471.154144 149.700821,460.950470 129.335480,447.735840 
M291.000000,234.574539 
	C291.333160,231.649124 291.750916,228.730453 291.984863,225.797134 
	C293.017029,212.856949 294.115601,199.920395 294.965179,186.967758 
	C296.086823,169.867172 297.195465,152.761429 297.945862,135.641937 
	C298.734344,117.655266 289.949158,105.195625 274.377289,97.156586 
	C256.050629,87.695366 234.734299,94.986504 222.917404,111.133881 
	C214.981934,121.977394 215.420334,134.278702 216.126984,146.530777 
	C217.034027,162.257111 218.776291,177.933472 219.965714,193.645966 
	C220.811264,204.816010 221.322495,216.011169 222.014236,227.193176 
	C222.308746,231.954117 222.625961,236.714996 223.031647,241.467484 
	C224.329559,256.671967 225.698822,271.870392 226.990082,287.075409 
	C227.712021,295.576477 228.106903,304.115356 229.197311,312.566437 
	C229.409576,314.211517 232.126678,316.772949 233.732147,316.806335 
	C249.221741,317.128113 264.722229,317.097229 280.214630,316.852661 
	C281.817352,316.827332 284.306458,315.059418 284.781586,313.583954 
	C285.761139,310.542236 285.765991,307.158752 285.977051,303.903259 
	C286.393219,297.483459 286.549072,291.045258 287.039978,284.632080 
	C288.293335,268.258026 289.671661,251.893524 291.000000,234.574539 
M257.460022,421.000122 
	C275.346375,421.314667 291.394531,405.413239 290.889221,387.078033 
	C290.346985,367.402740 275.604889,353.301025 256.988708,353.215240 
	C238.732727,353.131104 223.305832,367.851898 222.951706,386.502716 
	C222.580582,406.047729 238.897232,421.451782 257.460022,421.000122 
z"/>
<path fill="#ffffff" opacity="1.000000" stroke="none"
	d="
M291.000000,235.049866
	C289.671661,251.893524 288.293335,268.258026 287.039978,284.632080
	C286.549072,291.045258 286.393219,297.483459 285.977051,303.903259
	C285.765991,307.158752 285.761139,310.542236 284.781586,313.583954
	C284.306458,315.059418 281.817352,316.827332 280.214630,316.852661
	C264.722229,317.097229 249.221741,317.128113 233.732147,316.806335
	C232.126678,316.772949 229.409576,314.211517 229.197311,312.566437
	C228.106903,304.115356 227.712021,295.576477 226.990082,287.075409
	C225.698822,271.870392 224.329559,256.671967 223.031647,241.467484
	C222.625961,236.714996 222.308746,231.954117 222.014236,227.193176
	C221.322495,216.011169 220.811264,204.816010 219.965714,193.645966
	C218.776291,177.933472 217.034027,162.257111 216.126984,146.530777
	C215.420334,134.278702 214.981934,121.977394 222.917404,111.133881
	C234.734299,94.986504 256.050629,87.695366 274.377289,97.156586
	C289.949158,105.195625 298.734344,117.655266 297.945862,135.641937
	C297.195465,152.761429 296.086823,169.867172 294.965179,186.967758
	C294.115601,199.920395 293.017029,212.856949 291.984863,225.797134
	C291.750916,228.730453 291.333160,231.649124 291.000000,235.049866
z"/>
<path fill="#ffffff" opacity="1.000000" stroke="none"
	d="
M256.994049,421.000122
	C238.897232,421.451782 222.580582,406.047729 222.951706,386.502716
	C223.305832,367.851898 238.732727,353.131104 256.988708,353.215240
	C275.604889,353.301025 290.346985,367.402740 290.889221,387.078033
	C291.394531,405.413239 275.346375,421.314667 256.994049,421.000122
z"/>
</svg>